<?xml version="1.0" encoding="UTF-8"?>
<svg version="1.1" xmlns="http://www.w3.org/2000/svg" width="512" height="512">
<path d="M0 0 C0.96594086 0.00054382 1.93188171 0.00108765 2.92709351 0.00164795 C27.00051709 0.06377163 49.60532037 3.40415633 72.6875 10.375 C73.94022705 10.75132568 73.94022705 10.75132568 75.21826172 11.13525391 C107.83312052 21.18003613 137.77059584 39.16411811 162.6875 62.375 C164.07894666 63.58838219 165.47458639 64.79697803 166.875 66 C187.4755087 83.99442025 202.92956423 107.38566946 215.6875 131.375 C216.18781738 132.30626709 216.18781738 132.30626709 216.69824219 133.25634766 C227.89424114 154.43962329 234.98528274 178.77480367 238.6875 202.375 C238.87006348 203.53056396 239.05262695 204.68612793 239.24072266 205.87670898 C240.84105387 217.14671737 241.08666633 228.3157749 241.0625 239.6875 C241.06168427 241.13641129 241.06168427 241.13641129 241.06085205 242.61459351 C241.01982791 258.51177694 240.09507363 273.7945568 236.6875 289.375 C236.36604004 290.85419922 236.36604004 290.85419922 236.03808594 292.36328125 C225.03958589 341.22415776 198.58419619 389.07938546 159.6875 421.375 C158.38039063 422.54869141 158.38039063 422.54869141 157.046875 423.74609375 C124.54575722 452.69743644 81.5615696 471.85313537 38.6875 478.375 C37.56738525 478.55015137 36.44727051 478.72530273 35.29321289 478.90576172 C23.98304686 480.5097463 12.78745086 480.77425288 1.375 480.75 C0.40905914 480.74945618 -0.55688171 480.74891235 -1.55209351 480.74835205 C-17.44927694 480.70732791 -32.7320568 479.78257363 -48.3125 476.375 C-49.29863281 476.16069336 -50.28476563 475.94638672 -51.30078125 475.72558594 C-92.44383101 466.46435554 -130.42236543 447.15013436 -161.3125 418.375 C-162.70394666 417.16161781 -164.09958639 415.95302197 -165.5 414.75 C-204.36835286 380.79872792 -229.47143545 328.86084506 -237.3125 278.375 C-237.48910156 277.25053467 -237.66570312 276.12606934 -237.84765625 274.9675293 C-239.4500906 263.66249807 -239.71174147 252.46958054 -239.6875 241.0625 C-239.68695618 240.09655914 -239.68641235 239.13061829 -239.68585205 238.13540649 C-239.64482791 222.23822306 -238.72007363 206.9554432 -235.3125 191.375 C-235.09819336 190.38886719 -234.88388672 189.40273437 -234.66308594 188.38671875 C-225.40185554 147.24366899 -206.08763436 109.26513457 -177.3125 78.375 C-176.09911781 76.98355334 -174.89052197 75.58791361 -173.6875 74.1875 C-167.99909978 67.69389244 -161.92271623 62.09971167 -155.1875 56.69140625 C-153.3365034 55.20004622 -151.50159151 53.68838254 -149.6875 52.15234375 C-136.9958391 41.44375486 -122.97692695 33.08180457 -108.3125 25.375 C-107.6618457 25.02727539 -107.01119141 24.67955078 -106.34082031 24.32128906 C-85.19080663 13.15242558 -60.86063867 6.06905085 -37.3125 2.375 C-36.15693604 2.19243652 -35.00137207 2.00987305 -33.81079102 1.82177734 C-22.54078263 0.22144613 -11.3717251 -0.02416633 0 0 Z " fill="#2387FE" transform="translate(255.3125,15.625)"/>
<path d="M0 0 C4.67318502 4.00558716 8.77027913 7.68275016 12.6875 12.3125 C13.45223633 13.21536743 13.45223633 13.21536743 14.23242188 14.13647461 C40.29871919 45.42002928 57.06531686 82.94700609 64 123 C64.33837891 124.91425781 64.33837891 124.91425781 64.68359375 126.8671875 C73.29805382 185.92079652 55.87687048 246.54399279 20.51025391 294.01708984 C7.86044484 310.62584336 -7.09525259 325.74241468 -24 338 C-25.01964844 338.7528125 -26.03929687 339.505625 -27.08984375 340.28125 C-55.61167669 360.71050739 -88.50266335 373.90826201 -123 380 C-124.03737305 380.19480957 -124.03737305 380.19480957 -125.09570312 380.39355469 C-179.54082126 390.28007919 -239.18772271 374.28337241 -284.3125 343.5 C-290.80907578 338.97894546 -297.02713069 334.19909148 -303 329 C-303.80606689 328.30245605 -303.80606689 328.30245605 -304.62841797 327.59082031 C-306.32558933 326.11396649 -308.00873777 324.62272894 -309.6875 323.125 C-310.21762695 322.66029297 -310.74775391 322.19558594 -311.29394531 321.71679688 C-312.58868907 320.54007035 -313.80213592 319.27521307 -315 318 C-315 315 -315 315 -313.19117832 312.81924152 C-312.33705325 311.96658301 -311.48292818 311.1139245 -310.60292053 310.23542786 C-310.12993402 309.75917251 -309.65694752 309.28291716 -309.16962808 308.79222983 C-307.57596205 307.19125548 -305.97176302 305.60126764 -304.36743164 304.01098633 C-303.22557387 302.86833809 -302.08436894 301.72503714 -300.94377136 300.58113098 C-297.83902839 297.47124281 -294.72501112 294.3707938 -291.60915685 291.27204347 C-288.35608177 288.03397089 -285.11107984 284.78782761 -281.86509705 281.54264832 C-276.4131973 276.09444404 -270.95568542 270.65191475 -265.49438477 265.21313477 C-258.47432081 258.22195959 -251.46355898 251.22153291 -244.45569706 244.21812916 C-238.44283963 238.20924553 -232.42572351 232.20463169 -226.40792155 226.20070052 C-224.46767945 224.26456498 -222.52802995 222.32783723 -220.58845711 220.39103127 C-217.54665554 217.35410876 -214.50221914 214.31985209 -211.45567513 211.2876873 C-210.33450165 210.17105158 -209.21418127 209.05355858 -208.09475327 207.93517303 C-206.57349633 206.4156511 -205.04921902 204.89922817 -203.52406311 203.38362122 C-202.66956101 202.53209378 -201.81505892 201.68056635 -200.93466282 200.80323505 C-199 199 -199 199 -198 199 C-197.99453156 200.5573587 -197.99453156 200.5573587 -197.98895264 202.1461792 C-197.95186919 211.97300977 -197.89395181 221.79953083 -197.81609726 231.62612534 C-197.77673684 236.67703218 -197.74449255 241.72776766 -197.72900391 246.77880859 C-197.71376166 251.66143405 -197.67918318 256.54358803 -197.63169098 261.4260025 C-197.6169548 263.2804884 -197.60896349 265.13504163 -197.60811615 266.98958588 C-197.59439079 281.97908549 -196.17773425 295.34718304 -185.33984375 306.74609375 C-176.77568944 314.56893174 -166.98295019 317.4507336 -155.53515625 317.24609375 C-144.57364023 316.48302689 -136.26883644 311.68334189 -128.75 303.8125 C-119.49856402 292.86219753 -118.85144206 281.70825966 -118.83886719 268.00317383 C-118.83390228 266.70469513 -118.82893738 265.40621643 -118.82382202 264.06838989 C-118.8107658 260.52059164 -118.8042663 256.97281225 -118.79981136 253.42499375 C-118.79686946 251.20284352 -118.79276258 248.98069832 -118.78830719 246.75855064 C-118.77464968 239.78961775 -118.76497468 232.82069649 -118.7611053 225.85175115 C-118.75662966 217.83750524 -118.73909745 209.82343031 -118.7101047 201.80923635 C-118.68840946 195.59409361 -118.67839684 189.3789987 -118.67706418 183.16381854 C-118.67602169 179.46122972 -118.67023355 175.758802 -118.65224457 172.05625343 C-118.63253115 167.91866491 -118.63708391 163.78142935 -118.64355469 159.64379883 C-118.62973251 157.83148521 -118.62973251 157.83148521 -118.6156311 155.9825592 C-118.67110401 144.60449454 -120.89123625 136.21752749 -126 126 C-84.42 84.42 -42.84 42.84 0 0 Z " fill="#006CEF" transform="translate(414,98)"/>
<path d="M0 0 C0.96594086 0.00054382 1.93188171 0.00108765 2.92709351 0.00164795 C27.00051709 0.06377163 49.60532037 3.40415633 72.6875 10.375 C73.94022705 10.75132568 73.94022705 10.75132568 75.21826172 11.13525391 C107.83312052 21.18003613 137.77059584 39.16411811 162.6875 62.375 C164.07894666 63.58838219 165.47458639 64.79697803 166.875 66 C187.4755087 83.99442025 202.92956423 107.38566946 215.6875 131.375 C216.18781738 132.30626709 216.18781738 132.30626709 216.69824219 133.25634766 C227.89424114 154.43962329 234.98528274 178.77480367 238.6875 202.375 C238.87006348 203.53056396 239.05262695 204.68612793 239.24072266 205.87670898 C240.84105387 217.14671737 241.08666633 228.3157749 241.0625 239.6875 C241.06168427 241.13641129 241.06168427 241.13641129 241.06085205 242.61459351 C241.01982791 258.51177694 240.09507363 273.7945568 236.6875 289.375 C236.36604004 290.85419922 236.36604004 290.85419922 236.03808594 292.36328125 C225.03958589 341.22415776 198.58419619 389.07938546 159.6875 421.375 C158.38039063 422.54869141 158.38039063 422.54869141 157.046875 423.74609375 C124.54575722 452.69743644 81.5615696 471.85313537 38.6875 478.375 C37.56738525 478.55015137 36.44727051 478.72530273 35.29321289 478.90576172 C23.98304686 480.5097463 12.78745086 480.77425288 1.375 480.75 C0.40905914 480.74945618 -0.55688171 480.74891235 -1.55209351 480.74835205 C-17.44927694 480.70732791 -32.7320568 479.78257363 -48.3125 476.375 C-49.29863281 476.16069336 -50.28476563 475.94638672 -51.30078125 475.72558594 C-92.44383101 466.46435554 -130.42236543 447.15013436 -161.3125 418.375 C-162.70394666 417.16161781 -164.09958639 415.95302197 -165.5 414.75 C-204.36835286 380.79872792 -229.47143545 328.86084506 -237.3125 278.375 C-237.48910156 277.25053467 -237.66570312 276.12606934 -237.84765625 274.9675293 C-239.4500906 263.66249807 -239.71174147 252.46958054 -239.6875 241.0625 C-239.68695618 240.09655914 -239.68641235 239.13061829 -239.68585205 238.13540649 C-239.64482791 222.23822306 -238.72007363 206.9554432 -235.3125 191.375 C-235.09819336 190.38886719 -234.88388672 189.40273437 -234.66308594 188.38671875 C-225.40185554 147.24366899 -206.08763436 109.26513457 -177.3125 78.375 C-176.09911781 76.98355334 -174.89052197 75.58791361 -173.6875 74.1875 C-167.99909978 67.69389244 -161.92271623 62.09971167 -155.1875 56.69140625 C-153.3365034 55.20004622 -151.50159151 53.68838254 -149.6875 52.15234375 C-136.9958391 41.44375486 -122.97692695 33.08180457 -108.3125 25.375 C-107.6618457 25.02727539 -107.01119141 24.67955078 -106.34082031 24.32128906 C-85.19080663 13.15242558 -60.86063867 6.06905085 -37.3125 2.375 C-36.15693604 2.19243652 -35.00137207 2.00987305 -33.81079102 1.82177734 C-22.54078263 0.22144613 -11.3717251 -0.02416633 0 0 Z M-40.3125 19.375 C-41.38395264 19.56787598 -41.38395264 19.56787598 -42.47705078 19.76464844 C-77.4152607 26.27981641 -110.6673839 42.20492781 -138.3125 64.375 C-139.30894531 65.16777344 -140.30539063 65.96054688 -141.33203125 66.77734375 C-155.58913983 78.35514505 -168.54001968 91.49365747 -179.3125 106.375 C-180.07691406 107.41785156 -180.84132812 108.46070312 -181.62890625 109.53515625 C-215.48675489 157.05391078 -231.01702335 217.43802838 -221.3125 275.375 C-214.66252014 313.13458644 -199.87256081 349.65461045 -175.3125 379.375 C-174.48621094 380.40367187 -173.65992188 381.43234375 -172.80859375 382.4921875 C-136.35933726 427.28566375 -82.65307873 456.89736077 -25.25 463.75 C-5.63344264 465.67132346 16.31842627 466.0821188 35.6875 462.375 C37.10844971 462.11638184 37.10844971 462.11638184 38.55810547 461.85253906 C69.27338056 456.12253369 98.73519055 444.86445219 124.6875 427.375 C125.58976318 426.77002686 125.58976318 426.77002686 126.51025391 426.15283203 C147.25880039 412.11488717 165.91127049 394.61641028 180.6875 374.375 C181.3165625 373.529375 181.945625 372.68375 182.59375 371.8125 C215.56071917 326.25814261 231.65779501 266.74091655 223.375 210.875 C222.97526389 208.42588622 222.5493958 205.98511262 222.09326172 203.54589844 C221.72193718 201.55924513 221.39202237 199.56496721 221.06640625 197.5703125 C213.25422863 153.22043457 190.223107 114.73752366 159.6875 82.375 C158.88570313 81.5190625 158.08390625 80.663125 157.2578125 79.78125 C150.61502581 72.89888739 143.30469931 67.11911751 135.6875 61.375 C134.759375 60.6634375 133.83125 59.951875 132.875 59.21875 C120.68606574 50.0770493 107.42148491 42.89306722 93.6875 36.375 C92.66398437 35.87484375 91.64046875 35.3746875 90.5859375 34.859375 C50.30427032 16.29921443 3.18524889 11.19839362 -40.3125 19.375 Z " fill="#221F21" transform="translate(255.3125,15.625)"/>
<path d="M0 0 C0.95504425 -0.00960754 1.9100885 -0.01921509 2.89407349 -0.02911377 C3.93046967 -0.03336365 4.96686584 -0.03761353 6.03466797 -0.04199219 C7.63337234 -0.0505423 7.63337234 -0.0505423 9.26437378 -0.05926514 C11.52568567 -0.06872643 13.78701143 -0.07525358 16.04833984 -0.07910156 C19.4919484 -0.08876919 22.93495055 -0.11976668 26.37841797 -0.15136719 C28.57633109 -0.15790102 30.77424849 -0.16315 32.97216797 -0.16699219 C33.99641876 -0.17933899 35.02066956 -0.19168579 36.07595825 -0.20440674 C43.91422616 -0.18025433 50.5695609 0.96912438 56.65185547 6.34863281 C57.27576172 6.8784375 57.89966797 7.40824219 58.54248047 7.95410156 C64.79319499 15.37354212 64.98847242 22.19103464 64.95117188 31.546875 C64.95988032 32.88818489 64.97025134 34.22948485 64.98214722 35.57077026 C65.00880435 39.19506689 65.01009816 42.81894481 65.00502062 46.44332027 C65.00287187 49.47969538 65.01267207 52.51598737 65.02223146 55.55234456 C65.04438124 62.72343691 65.04532088 69.89431973 65.03320312 77.06542969 C65.02113783 84.43650742 65.04571701 91.80682025 65.08834326 99.17776752 C65.12370638 105.52885602 65.1355572 111.87970255 65.12906778 118.23088574 C65.12546099 122.01408788 65.1305209 125.79674486 65.15849686 129.57985687 C65.18385917 133.14256623 65.17957786 136.70409489 65.15367508 140.26678848 C65.14677386 142.17765709 65.16915205 144.08856349 65.19281006 145.9992981 C65.08291615 155.13390407 62.99803567 163.57933331 56.33103371 170.22547531 C50.40632789 175.01841584 44.4783892 176.67696985 36.91748047 176.46191406 C29.33381066 175.55517093 24.96973618 171.1042015 20.06591797 165.57519531 C15.75617204 159.32302869 16.10819917 152.81833318 16.11474609 145.51196289 C16.10791306 144.34547714 16.10108002 143.17899139 16.09403992 141.97715759 C16.08047124 139.44977044 16.07140557 136.92235599 16.06632996 134.39493752 C16.0580393 130.39876819 16.03781835 126.40275831 16.01379395 122.40666199 C15.96076498 113.2074519 15.92726781 104.00819042 15.89403534 94.8088913 C15.86335069 86.36698236 15.8285483 77.92514576 15.77772474 69.48333091 C15.75060959 64.86988365 15.73886019 60.25653294 15.72961426 55.64302063 C15.71664763 53.23605025 15.70312818 50.82908277 15.68896484 48.42211914 C15.68994675 47.32024261 15.69092865 46.21836609 15.69194031 45.08309937 C15.67953056 43.57537209 15.67953056 43.57537209 15.66687012 42.03718567 C15.663937 41.16282269 15.66100388 40.28845972 15.65798187 39.3876009 C15.54037425 36.87493657 15.54037425 36.87493657 13.40185547 34.16113281 C8.77339005 32.61831101 4.01796849 32.87542861 -0.83642578 32.73535156 C-6.23300223 31.9115751 -9.30500802 29.59406787 -12.91064453 25.59863281 C-16.05500389 21.05678041 -16.25852537 16.51755516 -15.59814453 11.16113281 C-12.25328774 4.59530281 -7.46968836 0.06058025 0 0 Z " fill="#FECC00" transform="translate(215.59814453125,223.8388671875)"/>
<path d="M0 0 C1.15926498 -0.00902847 2.31852997 -0.01805695 3.51292419 -0.02735901 C5.96472602 -0.04184563 8.41656637 -0.05074429 10.8684082 -0.05444336 C14.58417665 -0.06628856 18.29825603 -0.11545065 22.01367188 -0.16601562 C37.65487934 -0.27306095 51.02757522 0.13847233 63.05859375 11.37109375 C71.98453056 20.19299866 75.04166004 30.24607365 75.31256104 42.63819885 C75.32433304 45.01080508 75.32530643 47.38348131 75.31738281 49.75610352 C75.32088745 51.05983917 75.32439209 52.36357483 75.32800293 53.70681763 C75.3370528 57.2542758 75.33361378 60.80161651 75.32724476 64.34907651 C75.3221472 68.07776766 75.32688648 71.8064494 75.33001709 75.53514099 C75.33364541 81.79322091 75.32888705 88.05125346 75.31933594 94.30932617 C75.3084488 101.52573933 75.31198341 108.74203947 75.32298875 115.9584499 C75.33208837 122.17616028 75.333334 128.39383681 75.32811141 134.6115517 C75.32500699 138.31562872 75.32454015 142.01965275 75.33118439 145.72372627 C75.33807768 149.85437757 75.32850155 153.98483643 75.31738281 158.11547852 C75.32143127 159.32976028 75.32547974 160.54404205 75.32965088 161.79512024 C75.26257355 175.28077801 72.36969096 187.0736042 62.93359375 197.24609375 C53.47553669 206.06292661 43.21756443 208.76670256 30.62890625 208.6484375 C20.51159306 207.8625193 11.23891249 201.96081001 4.30859375 194.74609375 C-1.34904944 187.9306073 -5.0718119 178.60644157 -5.06166077 169.71405029 C-5.06303543 168.78299469 -5.0644101 167.85193909 -5.06582642 166.89266968 C-5.06223114 165.87846954 -5.05863586 164.86426941 -5.05493164 163.81933594 C-5.05507767 162.74585907 -5.05522369 161.6723822 -5.05537415 160.56637573 C-5.05467728 157.01688621 -5.04689539 153.46744911 -5.0390625 149.91796875 C-5.03719752 147.45745879 -5.03577399 144.99694845 -5.03477478 142.53643799 C-5.03095592 136.05915299 -5.02113097 129.5818904 -5.0100708 123.10461426 C-4.99984315 116.49552717 -4.99527425 109.88643647 -4.99023438 103.27734375 C-4.97950817 90.30858419 -4.9626314 77.33984016 -4.94140625 64.37109375 C-6.04750244 64.38479004 -7.15359863 64.39848633 -8.29321289 64.41259766 C-16.04622339 64.32439503 -23.50145845 59.75377894 -28.94140625 54.37109375 C-35.65719149 45.22809567 -38.02807109 36.67240804 -36.94140625 25.37109375 C-36.04908077 22.04515333 -34.73109637 19.30373238 -32.94140625 16.37109375 C-32.51730469 15.67242187 -32.09320313 14.97375 -31.65625 14.25390625 C-23.83413339 2.70593466 -13.25014467 0.06404755 0 0 Z M-18.25390625 22.99609375 C-21.41706387 27.44794521 -21.42978041 31.01706595 -20.94140625 36.37109375 C-18.97706586 42.04585488 -15.31339963 45.68509706 -9.94140625 48.37109375 C-6.80285996 48.60262585 -3.67154874 48.76519256 -0.52734375 48.88867188 C3.09742815 49.07775939 6.02132449 49.28390625 9.05859375 51.37109375 C10.2787475 53.81140125 10.18595929 55.37851855 10.18989563 58.10670471 C10.19390381 59.10614609 10.19791199 60.10558746 10.20204163 61.13531494 C10.20151291 62.23607361 10.20098419 63.33683228 10.20043945 64.47094727 C10.20565109 66.20534309 10.20565109 66.20534309 10.21096802 67.97477722 C10.21833577 70.49350564 10.2236757 73.0122406 10.22725868 75.53097725 C10.23441093 79.52003805 10.24971655 83.50901377 10.26860046 87.49803162 C10.27493828 88.86448378 10.2812639 90.23093599 10.28757763 91.59738827 C10.29074344 92.28185115 10.29390925 92.96631403 10.297171 93.67151821 C10.33920621 102.95848626 10.3721902 112.24541393 10.38452148 121.5324707 C10.39292316 127.79565146 10.41549536 134.05861251 10.45387715 140.32168335 C10.47357558 143.63361363 10.48384059 146.9451448 10.48104286 150.25714302 C10.47868524 153.96025541 10.50089529 157.66248551 10.52856445 161.36547852 C10.52196304 162.45206757 10.51536163 163.53865662 10.50856018 164.65817261 C10.60311813 172.38790347 12.15496934 178.37776414 16.734375 184.67578125 C21.93422673 189.66466048 26.62897015 192.46447588 33.99609375 192.74609375 C40.59690056 192.51571658 46.65549286 190.6736995 51.62058449 186.11390305 C58.53090579 177.73887201 59.93354033 168.99285709 59.80322266 158.46777344 C59.80809245 157.11938356 59.81554455 155.77100097 59.8253479 154.42263794 C59.84397727 150.79856514 59.82548287 147.17559045 59.79868364 143.55160427 C59.77586151 139.74104833 59.78428394 135.93053885 59.78817749 132.11993408 C59.78993657 125.72821341 59.76791975 119.33691976 59.73095703 112.9453125 C59.68855895 105.57192273 59.68162122 98.19915611 59.69408095 90.82566905 C59.70549377 83.70501842 59.69415177 76.58458558 59.67173386 69.46396637 C59.66248284 66.44499911 59.66067613 63.42616593 59.66490555 60.40718842 C59.66869017 56.85114613 59.65232206 53.29573272 59.62078476 49.73983383 C59.60834319 47.82353421 59.61528466 45.90713899 59.6229248 43.99081421 C59.521813 35.75031012 58.44348505 30.31283409 52.9453125 23.91015625 C52.21957031 23.27851563 51.49382812 22.646875 50.74609375 21.99609375 C50.02808594 21.34898437 49.31007813 20.701875 48.5703125 20.03515625 C42.19764658 15.81314119 35.25698142 16.05133056 27.8671875 16.03515625 C26.27198021 16.02517105 26.27198021 16.02517105 24.64454651 16.01498413 C22.40473146 16.00489399 20.16488658 16.00016598 17.92504883 16.00048828 C14.50356719 15.99610333 11.08336418 15.9597115 7.66210938 15.921875 C5.48047314 15.91600842 3.29883081 15.91203797 1.1171875 15.91015625 C0.09829941 15.89578522 -0.92058868 15.88141418 -1.97035217 15.86660767 C-9.55662701 15.91533604 -13.14738171 17.19949832 -18.25390625 22.99609375 Z " fill="#231F21" transform="translate(220.94140625,207.62890625)"/>
<path d="M0 0 C11.69043677 6.63039697 18.84979574 15.57220324 22.6171875 28.484375 C23.9494737 40.27355868 21.37604835 51.87719086 14.296875 61.4921875 C6.61699226 70.60088563 -3.39623013 75.63999813 -15.29296875 76.7578125 C-27.00151127 77.1350394 -36.72283836 73.40650381 -45.3828125 65.484375 C-53.35781694 57.62064969 -57.64777964 48.03122993 -57.7578125 36.796875 C-57.69086396 24.3743597 -53.3565705 15.5527994 -44.65625 6.734375 C-32.40155684 -4.45712561 -14.95066136 -7.21197215 0 0 Z " fill="#242122" transform="translate(273.3828125,115.515625)"/>
<path d="M0 0 C3 2.0625 3 2.0625 5 5 C5 8.4306708 4.91310774 10.80196131 2.79199219 13.58496094 C0.43590961 15.44543159 -1.80576697 16.12545622 -4.671875 17.015625 C-5.80399414 17.37599854 -6.93611328 17.73637207 -8.10253906 18.10766602 C-9.30620117 18.48463623 -10.50986328 18.86160645 -11.75 19.25 C-21.93374841 22.54493883 -31.50487972 26.06253745 -41 31 C-42.2103358 31.59757441 -43.42129112 32.1938954 -44.6328125 32.7890625 C-87.7898127 54.41841531 -119.8660299 93.93115538 -136 139 C-137.48342783 143.63182186 -138.77124264 148.29488327 -140 153 C-140.35372077 154.29048689 -140.70789933 155.58084837 -141.0625 156.87109375 C-144.00170369 167.79426296 -145.7638112 178.73976708 -146.234375 190.0546875 C-146.27022705 190.90828857 -146.3060791 191.76188965 -146.34301758 192.64135742 C-146.40456252 194.29989033 -146.45198985 195.9590264 -146.4831543 197.6184082 C-146.63354139 202.20253776 -147.04889871 205.26580549 -150 209 C-152.80915474 210.40457737 -154.88810534 210.24895157 -158 210 C-161.1359157 208.22015595 -161.84102736 207.47691793 -163 204 C-164.42486879 188.80598536 -162.06918401 173.83396904 -159 159 C-158.81808105 158.11924805 -158.63616211 157.23849609 -158.44873047 156.33105469 C-147.16782483 103.52552855 -114.17952289 58.05808801 -69.8984375 27.88671875 C-53.66134572 17.54039246 -36.34072012 8.87589016 -18 3 C-16.88625 2.64164063 -15.7725 2.28328125 -14.625 1.9140625 C-9.73755197 0.46642164 -5.10975245 -0.81756039 0 0 Z " fill="#232023" transform="translate(211,54)"/>
<path d="M0 0 C6.5050875 3.68360377 11.85008743 8.78804102 13.9453125 16.1015625 C14.98243711 23.57601228 13.76585569 30.02744456 9.46875 36.234375 C4.89560658 41.89337896 0.37986492 45.52704559 -6.94921875 46.4765625 C-13.4837736 46.73958861 -18.78929928 46.15273404 -24.0546875 42.1015625 C-30.31146473 36.28629173 -34.10878598 30.36248449 -34.4921875 21.6640625 C-34.25525412 14.99347647 -32.56364046 10.73689929 -27.9609375 5.90234375 C-19.7156089 -1.75206963 -10.78488932 -4.67199659 0 0 Z " fill="#FCCB00" transform="translate(266.0546875,129.8984375)"/>
<path d="M0 0 C1.32741211 -0.00386719 1.32741211 -0.00386719 2.68164062 -0.0078125 C7.53318689 0.06497889 11.03851764 0.29922575 14.9375 3.5 C16.34207737 6.30915474 16.18645157 8.38810534 15.9375 11.5 C14.15765595 14.6359157 13.41441793 15.34102736 9.9375 16.5 C6.29642203 16.78061885 2.65070024 16.7774196 -1 16.8125 C-2.00224609 16.84150391 -3.00449219 16.87050781 -4.03710938 16.90039062 C-11.38044984 16.96407537 -11.38044984 16.96407537 -14.71484375 14.6953125 C-16.75443712 11.37284446 -16.73169549 9.31441432 -16.0625 5.5 C-11.16088801 0.02640088 -7.11795811 -0.22910765 0 0 Z " fill="#232125" transform="translate(248.0625,47.5)"/>
</svg>
