<?xml version="1.0" encoding="UTF-8"?>
<svg version="1.1" xmlns="http://www.w3.org/2000/svg" width="512" height="512">
<path d="M0 0 C1.01790619 0.00215515 2.03581238 0.0043103 3.08456421 0.00653076 C17.69363523 0.05620146 32.02575853 0.30709809 46.375 3.3125 C47.34985352 3.51117676 48.32470703 3.70985352 49.32910156 3.91455078 C97.7109774 14.03517194 141.69928269 35.9516877 177.375 70.3125 C178.3640332 71.26068604 178.3640332 71.26068604 179.37304688 72.22802734 C188.86130305 81.37247479 197.6012044 90.66984009 205.375 101.3125 C206.23306152 102.46355017 207.09113451 103.61459177 207.94921875 104.765625 C213.98736829 112.95680614 219.34595521 121.47054105 224.375 130.3125 C224.73948242 130.94430176 225.10396484 131.57610352 225.47949219 132.22705078 C247.08534998 169.97532572 256.85198095 212.74189997 256.6875 255.9375 C256.68534485 256.95540619 256.6831897 257.97331238 256.68096924 259.02206421 C256.63129854 273.63113523 256.38040191 287.96325853 253.375 302.3125 C253.07698486 303.77478027 253.07698486 303.77478027 252.77294922 305.26660156 C242.65232806 353.6484774 220.7358123 397.63678269 186.375 433.3125 C185.74287598 433.97185547 185.11075195 434.63121094 184.45947266 435.31054688 C175.31502521 444.79880305 166.01765991 453.5387044 155.375 461.3125 C154.22394983 462.17056152 153.07290823 463.02863451 151.921875 463.88671875 C143.73224019 469.92427396 135.22961724 475.30707302 126.375 480.3125 C125.66778809 480.7146875 124.96057617 481.116875 124.23193359 481.53125 C101.09654164 494.5566741 75.92537591 503.30551461 49.9375 508.625 C49.21860596 508.77235596 48.49971191 508.91971191 47.7590332 509.0715332 C33.08339502 511.86090125 18.55831162 512.66142619 3.64770508 512.62817383 C0.70811513 512.6250221 -2.2304558 512.64854926 -5.16992188 512.67382812 C-18.54306192 512.71848737 -31.43916711 511.51301542 -44.625 509.3125 C-46.33055054 509.03031616 -46.33055054 509.03031616 -48.07055664 508.74243164 C-91.33802759 500.97044532 -132.38793216 480.98345309 -165.625 452.3125 C-166.37007813 451.67828125 -167.11515625 451.0440625 -167.8828125 450.390625 C-181.38779833 438.57948485 -194.05918743 425.82889772 -204.625 411.3125 C-205.48149066 410.16255169 -206.33826433 409.01281411 -207.1953125 407.86328125 C-213.23534209 399.67315742 -218.61867614 391.16870382 -223.625 382.3125 C-224.0271875 381.60528809 -224.429375 380.89807617 -224.84375 380.16943359 C-237.8691741 357.03404164 -246.61801461 331.86287591 -251.9375 305.875 C-252.08485596 305.15610596 -252.23221191 304.43721191 -252.3840332 303.6965332 C-255.35789088 288.05024391 -255.99800362 272.57681954 -255.9375 256.6875 C-255.93534485 255.66959381 -255.9331897 254.65168762 -255.93096924 253.60293579 C-255.88129854 238.99386477 -255.63040191 224.66174147 -252.625 210.3125 C-252.42632324 209.33764648 -252.22764648 208.36279297 -252.02294922 207.35839844 C-241.90232806 158.9765226 -219.9858123 114.98821731 -185.625 79.3125 C-184.99287598 78.65314453 -184.36075195 77.99378906 -183.70947266 77.31445312 C-174.56502521 67.82619695 -165.26765991 59.0862956 -154.625 51.3125 C-153.47394983 50.45443848 -152.32290823 49.59636549 -151.171875 48.73828125 C-142.98224019 42.70072604 -134.47961724 37.31792698 -125.625 32.3125 C-124.91778809 31.9103125 -124.21057617 31.508125 -123.48193359 31.09375 C-100.34654164 18.0683259 -75.17537591 9.31948539 -49.1875 4 C-48.46860596 3.85264404 -47.74971191 3.70528809 -47.0090332 3.5534668 C-31.36274391 0.57960912 -15.88931954 -0.06050362 0 0 Z M-37.92675781 140.84814453 C-40.68687903 143.22813404 -43.46791014 145.58326466 -46.25 147.9375 C-46.79180908 148.39672852 -47.33361816 148.85595703 -47.8918457 149.32910156 C-51.25333827 152.17231125 -54.64554526 154.97341159 -58.0625 157.75 C-62.30892382 161.20524151 -66.47796294 164.73947834 -70.625 168.3125 C-75.63819488 172.63178956 -80.7103732 176.86347119 -85.84765625 181.03515625 C-88.96896267 183.59453972 -92.04953424 186.19839916 -95.125 188.8125 C-99.07150481 192.16697127 -103.04142072 195.48471829 -107.0625 198.75 C-111.9218454 202.70396518 -116.67545329 206.77010546 -121.42016602 210.85986328 C-125.0721436 214.00103614 -128.76201494 217.08594566 -132.5 220.125 C-133.81097656 221.19621094 -133.81097656 221.19621094 -135.1484375 222.2890625 C-136.75408375 223.60093121 -138.36325602 224.90850071 -139.9765625 226.2109375 C-144.88314986 230.29678661 -148.14490498 233.45537293 -148.96875 240.07421875 C-149.32449519 247.16244174 -148.36830503 251.94712218 -143.625 257.3125 C-141.18891207 259.69638916 -141.18891207 259.69638916 -138.625 261.3125 C-137.83029297 261.85390625 -137.83029297 261.85390625 -137.01953125 262.40625 C-133.34550855 263.79674472 -129.7651251 263.52136671 -125.875 263.4375 C-125.08222656 263.42847656 -124.28945312 263.41945313 -123.47265625 263.41015625 C-121.52330719 263.38667012 -119.57411425 263.35080137 -117.625 263.3125 C-117.62868717 263.88749741 -117.63237434 264.46249481 -117.63617325 265.05491638 C-117.72464989 279.06925617 -117.7907705 293.08355389 -117.83224869 307.09811401 C-117.85284229 313.87557021 -117.88090107 320.65283955 -117.92675781 327.43017578 C-117.97100261 333.97241512 -117.99414773 340.51453337 -118.00450897 347.05691528 C-118.01189157 349.55114799 -118.02630802 352.04537026 -118.04792023 354.53952026 C-118.0770172 358.03699566 -118.08095321 361.53367276 -118.07910156 365.03125 C-118.09348267 366.05912125 -118.10786377 367.08699249 -118.12268066 368.14601135 C-118.08124313 375.39405161 -116.8018471 381.09906733 -111.58984375 386.37109375 C-110.92082031 386.82613281 -110.25179687 387.28117187 -109.5625 387.75 C-108.55509766 388.45962891 -108.55509766 388.45962891 -107.52734375 389.18359375 C-103.80993038 391.38961524 -100.73062642 391.43446732 -96.5012207 391.42602539 C-95.24013992 391.42594986 -93.97905914 391.42587433 -92.67976379 391.42579651 C-91.30343588 391.42068989 -89.92710837 391.41547389 -88.55078125 391.41015625 C-87.14259389 391.40829086 -85.73440589 391.40686753 -84.32621765 391.40586853 C-80.6223267 391.40205288 -76.91847505 391.39223072 -73.21459961 391.38116455 C-69.43408744 391.37092997 -65.65356891 391.36636652 -61.87304688 391.36132812 C-54.45701335 391.3506076 -47.04101218 391.3335426 -39.625 391.3125 C-39.62135437 390.40176224 -39.61770874 389.49102448 -39.61395264 388.5526886 C-39.57589265 379.91814831 -39.51883789 371.28397883 -39.44109726 362.64970112 C-39.40179399 358.21201026 -39.36952228 353.77451275 -39.35400391 349.33666992 C-39.33872319 345.04404121 -39.30407934 340.75194467 -39.25669098 336.45955467 C-39.24199372 334.83197882 -39.23396578 333.20432694 -39.23311615 331.57668495 C-39.21852732 317.62664044 -37.94260743 304.73560444 -27.625 294.3125 C-19.30775595 286.60046081 -8.78394021 282.88385922 2.49609375 283.03515625 C13.34268057 284.08007845 23.14252584 288.58183747 30.625 296.5 C37.07598007 304.56821741 39.49500636 313.63558841 39.58032227 323.76489258 C39.59022186 324.4971405 39.60012146 325.22938843 39.61032104 325.98382568 C39.64177625 328.39152857 39.66662989 330.79925116 39.69140625 333.20703125 C39.7119896 334.88140867 39.73298643 336.55578105 39.75437927 338.23014832 C39.80945738 342.62771516 39.85892929 347.02532779 39.90722656 351.42297363 C39.95754599 355.91418512 40.01317745 360.40533047 40.06835938 364.89648438 C40.17576641 373.70176693 40.27724982 382.50710497 40.375 391.3125 C48.45095493 391.40547974 56.52668348 391.4764056 64.6030426 391.51974869 C68.35388189 391.54055897 72.10435302 391.56875467 75.85498047 391.61425781 C79.47952862 391.6579525 83.10372427 391.68168636 86.72851562 391.69200897 C88.10633894 391.69935832 89.48414455 391.71370946 90.86181641 391.73542023 C99.29260504 391.86290917 106.39905055 391.96945253 112.8840332 385.90020752 C116.81020737 381.51633056 118.62850688 377.26384255 118.61550903 371.42131042 C118.61825836 370.4636377 118.62100769 369.50596497 118.62384033 368.51927185 C118.61664978 367.48061478 118.60945923 366.4419577 118.60205078 365.37182617 C118.60248886 363.71750076 118.60248886 363.71750076 118.60293579 362.02975464 C118.60154365 358.38824568 118.5859876 354.74694192 118.5703125 351.10546875 C118.56658197 348.57912813 118.56373518 346.05278606 118.56173706 343.52644348 C118.5548838 337.55897846 118.53912453 331.59160137 118.51903808 325.62417156 C118.49666181 318.82854836 118.48568131 312.0329216 118.47564721 305.23727071 C118.45475777 291.26230648 118.4195926 277.28740727 118.375 263.3125 C119.54635498 263.33787842 120.71770996 263.36325684 121.92456055 263.3894043 C123.47443896 263.4099286 125.02432566 263.42983421 126.57421875 263.44921875 C127.34471558 263.46754761 128.1152124 263.48587646 128.90905762 263.50476074 C134.10089512 263.55346466 137.74167933 263.06195865 141.93359375 259.7421875 C146.93062539 254.78578214 149.65608662 250.66550779 149.8125 243.5625 C149.85246094 242.57765625 149.89242188 241.5928125 149.93359375 240.578125 C148.59616774 232.7593268 143.15060439 227.72071406 137.25 222.875 C136.58621338 222.31498291 135.92242676 221.75496582 135.23852539 221.17797852 C133.29424659 219.54332066 131.33783116 217.92480711 129.375 216.3125 C128.40691406 215.51585937 127.43882812 214.71921875 126.44140625 213.8984375 C124.69198774 212.46874927 122.93938641 211.04294665 121.18359375 209.62109375 C117.87201407 206.89905815 114.6219 204.11106861 111.375 201.3125 C106.36189941 196.99310414 101.2896229 192.76152564 96.15234375 188.58984375 C92.46740857 185.56830056 88.83931679 182.48214049 85.20849609 179.39599609 C81.81526525 176.51692157 78.3922328 173.68038508 74.9375 170.875 C70.07370975 166.91741812 65.31618769 162.84707554 60.56665039 158.75415039 C56.17897396 154.98085666 51.71962413 151.30667271 47.22265625 147.6640625 C44.48762592 145.40550522 41.80688335 143.09599879 39.1315918 140.76757812 C26.14547066 129.48772629 14.80365642 120.86937717 -2.953125 121.03515625 C-17.26784726 122.11637463 -27.56452737 131.89353471 -37.92675781 140.84814453 Z " fill="#000000" transform="translate(255.625,-0.3125)"/>
</svg>
