<?xml version="1.0" encoding="UTF-8"?>
<svg version="1.1" xmlns="http://www.w3.org/2000/svg" width="225" height="225">
<path d="M0 0 C74.25 0 148.5 0 225 0 C225 74.25 225 148.5 225 225 C150.75 225 76.5 225 0 225 C0 150.75 0 76.5 0 0 Z " fill="#FEFEFE" transform="translate(0,0)"/>
<path d="M0 0 C14.66850167 11.73887027 24.41860066 27.17096953 27 46 C28.34289491 66.54842366 22.84453747 85.0505907 9.25 100.6875 C-1.79100282 112.38865247 -17.68729454 121.09669058 -34 122 C-35.62035156 122.09667969 -35.62035156 122.09667969 -37.2734375 122.1953125 C-55.73099003 122.77573868 -72.70941397 117.09699905 -86.5 104.625 C-98.23931895 93.46292997 -107.09078017 77.41944048 -108 61 C-108.06445312 59.91976562 -108.12890625 58.83953125 -108.1953125 57.7265625 C-108.80976169 38.18707839 -102.26665641 21.5289208 -89 7 C-65.86942815 -17.39040691 -26.80161621 -19.34966605 0 0 Z " fill="#0165C8" transform="translate(153,58)"/>
<path d="M0 0 C5.49771233 2.90910339 8.60596394 6.00144368 11.265625 11.64599609 C13.45948485 19.2286894 12.73762614 27.31211984 12.55078125 35.1328125 C12.52566085 36.96611534 12.50285431 38.79945142 12.48242188 40.6328125 C12.43201685 45.09264884 12.33412667 49.54780539 12.23828125 54.0078125 C6.62828125 54.0078125 1.01828125 54.0078125 -4.76171875 54.0078125 C-4.81779297 50.27017578 -4.81779297 50.27017578 -4.875 46.45703125 C-4.92120913 44.0442628 -4.97244485 41.63164989 -5.02416992 39.21899414 C-5.05742738 37.54200691 -5.08545683 35.86490753 -5.1081543 34.18774414 C-5.14168612 31.77702025 -5.19399853 29.36732488 -5.25 26.95703125 C-5.25638992 26.20693283 -5.26277985 25.45683441 -5.2693634 24.68400574 C-5.36662243 20.60786549 -5.36662243 20.60786549 -7.16333008 17.04736328 C-10.35662525 14.97052644 -14.04041254 15.0078125 -17.76171875 15.0078125 C-20.72148547 15.5029333 -20.72148547 15.5029333 -22.76171875 17.0078125 C-24.15791035 20.71371841 -23.98488969 24.70540566 -24.078125 28.6171875 C-24.0989061 29.34399719 -24.11968719 30.07080688 -24.14109802 30.81964111 C-24.20627387 33.13227241 -24.26532915 35.44501343 -24.32421875 37.7578125 C-24.36743441 39.32943825 -24.41104967 40.90105306 -24.45507812 42.47265625 C-24.56267152 46.3175977 -24.6619816 50.16262715 -24.76171875 54.0078125 C-30.37171875 54.0078125 -35.98171875 54.0078125 -41.76171875 54.0078125 C-41.76171875 36.1878125 -41.76171875 18.3678125 -41.76171875 0.0078125 C-36.48171875 0.0078125 -31.20171875 0.0078125 -25.76171875 0.0078125 C-25.43171875 1.9878125 -25.10171875 3.9678125 -24.76171875 6.0078125 C-23.87484375 5.2240625 -22.98796875 4.4403125 -22.07421875 3.6328125 C-15.86200465 -1.85705112 -7.70447925 -2.76794587 0 0 Z " fill="#F8FAFD" transform="translate(140.76171875,98.9921875)"/>
<path d="M0 0 C5.61 0 11.22 0 17 0 C17 17.82 17 35.64 17 54 C11.39 54 5.78 54 0 54 C0 36.18 0 18.36 0 0 Z " fill="#FBFCFD" transform="translate(73,99)"/>
<path d="M0 0 C2.75329021 1.79562405 4.52627461 3.05254922 6 6 C6.39447548 10.18144011 6.45035186 12.30946048 4.125 15.875 C1.39955109 18.60044891 0.56499391 18.94669869 -3.3125 19.3125 C-7.57536111 18.95124058 -9.01992054 17.98007946 -12 15 C-13.55024464 11.89951072 -13.28992015 9.42105782 -13 6 C-9.30920537 0.34078157 -6.6962915 -0.56748233 0 0 Z " fill="#F9FBFD" transform="translate(85,72)"/>
</svg>
