<?xml version="1.0" encoding="UTF-8"?>
<svg version="1.1" xmlns="http://www.w3.org/2000/svg" width="512" height="512">
<path d="M0 0 C1.00449111 -0.00397774 1.00449111 -0.00397774 2.02927497 -0.00803584 C4.28931271 -0.01573899 6.5492962 -0.0162884 8.8093462 -0.01688576 C10.43965584 -0.02089971 12.06996447 -0.02533782 13.7002719 -0.03016531 C18.19307146 -0.04214411 22.68586027 -0.04778228 27.17867267 -0.05234647 C32.01931615 -0.05829757 36.85994675 -0.0699086 41.70058155 -0.08063698 C53.39690775 -0.10517157 65.09323821 -0.11978932 76.78958222 -0.13269705 C80.09207537 -0.13640809 83.3945681 -0.14038139 86.69706082 -0.14444971 C107.1968985 -0.1696844 127.69673683 -0.19174157 148.19658661 -0.20417786 C152.94607197 -0.20710764 157.6955573 -0.21006929 162.44504261 -0.21308327 C164.2157753 -0.21420234 164.2157753 -0.21420234 166.02228037 -0.21534403 C185.15118234 -0.22800126 204.27999144 -0.26122874 223.40884998 -0.3028851 C243.03955964 -0.34528459 262.67022172 -0.36887056 282.30097705 -0.37409842 C293.32637947 -0.3775147 304.35163673 -0.3892955 315.37699413 -0.42220116 C324.76553829 -0.45017547 334.15390754 -0.46121247 343.54249015 -0.4500057 C348.33339727 -0.44481244 353.12393796 -0.44774918 357.91479206 -0.47247124 C362.30141672 -0.4949186 366.68741074 -0.49425917 371.07404611 -0.47526737 C372.66023419 -0.47246101 374.24646463 -0.4781012 375.83258446 -0.4930803 C390.5827419 -0.62385219 390.5827419 -0.62385219 395.91943181 3.55780447 C401.26949852 9.01118318 403.03487756 13.62063044 403.1141308 21.26257896 C403.09956659 22.29372322 403.08500238 23.32486748 403.06999683 24.38725853 C403.07426896 25.50073662 403.07854108 26.61421471 403.08294266 27.76143456 C403.09116013 31.48209276 403.06370596 35.20161677 403.0363512 38.92217064 C403.03494046 41.5932932 403.03551317 44.26434689 403.03856373 46.93546104 C403.04118049 52.68074281 403.02554579 58.4257398 402.99737453 64.17094994 C402.9566709 72.47742139 402.94371033 80.78375569 402.93743458 89.09031606 C402.92650212 102.56836249 402.8932565 116.04625728 402.84592152 129.52422142 C402.7999987 142.61373195 402.76462015 155.70320124 402.74338245 168.79277611 C402.74206884 169.60015012 402.74075522 170.40752414 402.73940179 171.23936403 C402.73287642 175.289882 402.72655793 179.34040027 402.72034228 183.39091873 C402.66854196 216.97306057 402.58050537 250.55501887 402.46872425 284.13701439 C403.08274601 283.78337318 403.69676777 283.42973198 404.32939625 283.06537437 C405.13696873 282.60698677 405.94454121 282.14859917 406.77658558 281.67632103 C407.57623234 281.21955482 408.3758791 280.76278862 409.19975758 280.29218102 C413.56550311 278.06951129 417.73856156 278.3707575 422.46872425 279.13701439 C428.4809625 281.74609891 431.29613029 286.64718268 434.46872425 292.13701439 C435.11841175 293.25334251 435.76809925 294.36967064 436.43747425 295.51982689 C442.75783034 306.88130889 442.75783034 306.88130889 441.28903675 313.18779564 C438.57567748 319.6352541 434.51280793 322.13791665 428.28122425 324.96513939 C423.6690193 327.59264096 423.6690193 327.59264096 421.50900745 332.24590111 C421.32141005 335.98077131 421.4691154 339.535856 421.78122425 343.26201439 C421.90519715 345.76447758 422.02640132 348.26707986 422.1445055 350.76982689 C422.22611927 351.87213646 422.30773304 352.97444603 422.39181995 354.11015892 C422.46477811 356.98169923 422.15625761 359.35913442 421.46872425 362.13701439 C422.67528675 362.44638939 422.67528675 362.44638939 423.90622425 362.76201439 C430.23856059 365.20607403 437.08527166 369.07499517 440.46872425 375.13701439 C442.0458202 378.89520049 442.19367898 382.10563641 440.81003284 385.98271751 C436.90725526 395.11207358 431.97524311 405.5406204 423.46872425 411.13701439 C420.18702212 412.36103635 418.19592304 412.18360437 414.46872425 412.13701439 C410.50872425 410.15701439 406.54872425 408.17701439 402.46872425 406.13701439 C402.46872425 416.36701439 402.46872425 426.59701439 402.46872425 437.13701439 C406.47899769 437.1022097 410.48927113 437.06740501 414.621068 437.03154564 C417.84009746 437.01222166 421.05911029 436.9959643 424.27816486 436.98176384 C427.66447767 436.96599173 431.05056128 436.94495287 434.43674183 436.91069603 C438.33157828 436.87413489 442.22609071 436.85724672 446.121068 436.84404564 C447.92159878 436.82081985 447.92159878 436.82081985 449.75850391 436.79712486 C457.37487606 436.79561166 464.57542491 437.14716849 470.808568 441.93388939 C471.33579456 442.57842064 471.86302113 443.22295189 472.40622425 443.88701439 C473.22413441 444.83834251 473.22413441 444.83834251 474.058568 445.80888939 C477.87925875 452.11673339 477.78974008 458.75204752 477.71872425 465.88701439 C477.71123158 466.86694359 477.7037389 467.84687279 477.69601917 468.85649681 C477.4985379 482.10980681 475.35141115 492.41319561 466.2695055 502.50420189 C458.99411625 509.10097565 450.65528081 512.45145293 440.89231396 512.39707661 C440.14610163 512.40088228 439.3998893 512.40468795 438.63106447 512.40860894 C436.12858748 512.41892195 433.62633744 512.4150191 431.1238451 512.41116905 C429.31230467 512.41562162 427.50076619 512.42093573 425.68923056 512.42703778 C420.70924655 512.44122609 415.72932493 512.44288091 410.74932361 512.44244087 C405.37899308 512.44408835 400.00868831 512.45715363 394.63837147 512.46863365 C382.89449428 512.49148856 371.15063517 512.49940485 359.40673876 512.5044601 C352.07336978 512.50771667 344.74000606 512.51423893 337.40664005 512.52146149 C317.10144628 512.54102837 296.79625739 512.55743196 276.49105358 512.56033802 C275.1915341 512.56052559 273.89201462 512.56071316 272.55311576 512.56090641 C269.91868154 512.56127266 267.28424732 512.56163636 264.6498131 512.56199753 C263.34208015 512.56218034 262.03434719 512.56236315 260.68698597 512.5625515 C259.3776562 512.56273205 258.06832644 512.5629126 256.71932001 512.56309862 C235.50462284 512.56664007 214.29002719 512.59366033 193.07536523 512.63104939 C171.29299286 512.66913166 149.51067086 512.68849549 127.72826445 512.68879753 C115.49889202 512.68938213 103.26964068 512.69787594 91.04029942 512.7267952 C80.62646936 512.75130798 70.21280456 512.75859259 59.79895346 512.74354767 C54.48705524 512.73637835 49.17548335 512.73723752 43.86362171 512.75995827 C38.99642671 512.78057726 34.12980829 512.77792041 29.26261933 512.75708342 C27.50619946 512.75359413 25.74973774 512.75847467 23.99337272 512.77278786 C11.15783042 512.87060866 -0.02217918 511.47225653 -9.78127575 502.16045189 C-18.24177307 492.37800186 -20.69403307 481.81240534 -20.66270351 469.11682892 C-20.66475615 468.33479648 -20.66680878 467.55276405 -20.66892362 466.74703366 C-20.67457418 464.1288118 -20.67313878 461.51064286 -20.67171764 458.892416 C-20.67430238 456.99538007 -20.67731584 455.09834468 -20.68072104 453.20131004 C-20.68878126 447.98977433 -20.69058007 442.77825239 -20.69131851 437.56671119 C-20.69317071 431.94561059 -20.70071876 426.32451711 -20.70745373 420.70342064 C-20.72102942 408.41436756 -20.72706024 396.12531774 -20.73146439 383.83625841 C-20.73422743 376.16403732 -20.73846483 368.49181749 -20.74296856 360.81959724 C-20.75515895 339.57931455 -20.76549492 318.33903319 -20.76884365 297.09874725 C-20.76906528 295.72592779 -20.76928707 294.35310832 -20.769509 292.98028886 C-20.76972964 291.6041876 -20.76995012 290.22808635 -20.77017045 288.8519851 C-20.770613 286.09136335 -20.77106012 283.3307416 -20.77151012 280.57011986 C-20.77161952 279.88564925 -20.77172891 279.20117865 -20.77184161 278.49596651 C-20.77547341 256.29480849 -20.79139979 234.0936831 -20.81470049 211.89253757 C-20.83929769 188.4131143 -20.85300966 164.93371631 -20.85421157 141.45427787 C-20.85512876 128.65775127 -20.86089254 115.86126742 -20.87903118 103.06475258 C-20.89441825 92.17109614 -20.89956076 81.27749568 -20.89129308 70.38383044 C-20.887382 64.82529324 -20.88833868 59.2668688 -20.90235043 53.70834541 C-20.91506127 48.61942471 -20.91391655 43.53070183 -20.90175971 38.44178151 C-20.89979787 36.60132947 -20.90290358 34.76086355 -20.91160408 32.92043103 C-21.0025026 12.39206665 -21.0025026 12.39206665 -15.59377575 5.76201439 C-14.57283825 4.95763939 -14.57283825 4.95763939 -13.53127575 4.13701439 C-12.85065075 3.58013939 -12.17002575 3.02326439 -11.46877575 2.44951439 C-7.70681422 -0.09891117 -4.41981803 0.00860226 0 0 Z " fill="#F9F6F6" transform="translate(27.531275749206543,-0.13701438903808594)"/>
<path d="M0 0 C2.23046875 1.30859375 2.23046875 1.30859375 3.23046875 2.30859375 C3.31886545 4.68427895 3.3457718 7.03068049 3.328125 9.40625 C3.32600258 10.46953773 3.32600258 10.46953773 3.32383728 11.55430603 C3.31822318 13.82661087 3.30566838 16.0988185 3.29296875 18.37109375 C3.28795556 19.90820171 3.28339234 21.4453112 3.27929688 22.98242188 C3.26824917 26.75785017 3.25097516 30.53320546 3.23046875 34.30859375 C3.92458359 34.30193192 4.61869843 34.29527008 5.33384705 34.28840637 C11.90911585 34.22803102 18.4843061 34.18248609 25.05979061 34.15315723 C28.43947719 34.13757149 31.81893269 34.11646519 35.19848633 34.08227539 C39.09332278 34.04571425 42.9878352 34.02882608 46.8828125 34.015625 C48.68334328 33.99239922 48.68334328 33.99239922 50.52024841 33.96870422 C58.13662056 33.96719102 65.33716941 34.31874785 71.5703125 39.10546875 C72.09753906 39.75 72.62476563 40.39453125 73.16796875 41.05859375 C73.71324219 41.6928125 74.25851562 42.32703125 74.8203125 42.98046875 C78.64100325 49.28831275 78.55148458 55.92362688 78.48046875 63.05859375 C78.47297607 64.03852295 78.4654834 65.01845215 78.45776367 66.02807617 C78.2602824 79.28138617 76.11315565 89.58477497 67.03125 99.67578125 C59.78048982 106.25022323 51.55492114 109.56039695 41.82356453 109.55468941 C40.73177659 109.55815094 40.73177659 109.55815094 39.61793232 109.5616824 C37.17798591 109.5669779 34.73830324 109.5580021 32.29837036 109.54910278 C30.53190165 109.54997494 28.76543318 109.55172611 26.9989661 109.55428112 C22.14401709 109.55875661 17.28915619 109.55074814 12.43421841 109.54072499 C7.19910115 109.53209574 1.96398894 109.53501028 -3.27113342 109.53652954 C-12.34162449 109.53757872 -21.41208681 109.53129863 -30.48257065 109.52005386 C-43.59699768 109.50380636 -56.7114108 109.49859162 -69.82584681 109.49607788 C-91.10265575 109.4916996 -112.37944938 109.47838689 -133.65625 109.45947266 C-154.32584557 109.4411173 -174.99543699 109.42695911 -195.66503906 109.41845703 C-197.57584522 109.41766886 -197.57584522 109.41766886 -199.52525352 109.41686477 C-205.91582811 109.41425471 -212.30640273 109.41172729 -218.69697738 109.40924096 C-271.7211726 109.38850433 -324.74535118 109.35327517 -377.76953125 109.30859375 C-377.76953125 108.97859375 -377.76953125 108.64859375 -377.76953125 108.30859375 C-377.01929688 108.17324219 -376.2690625 108.03789062 -375.49609375 107.8984375 C-363.91604513 105.46283533 -356.69461395 100.59489608 -350.14453125 90.73828125 C-344.84761818 81.37839509 -345.51242763 71.01645669 -345.33984375 60.55664062 C-345.13426014 53.44259116 -344.8310446 46.98809239 -340.0859375 41.28515625 C-339.50714844 40.83914063 -338.92835938 40.393125 -338.33203125 39.93359375 C-337.75582031 39.47210938 -337.17960937 39.010625 -336.5859375 38.53515625 C-332.82923991 35.99837551 -330.163401 35.05868234 -325.59212875 35.06249809 C-324.53914589 35.058516 -323.48616302 35.0545339 -322.40127158 35.05043113 C-320.6678219 35.05916966 -320.6678219 35.05916966 -318.89935303 35.06808472 C-317.67086962 35.06637587 -316.44238621 35.06466702 -315.17667603 35.06290638 C-311.76515586 35.06017856 -308.3538644 35.06644097 -304.94237185 35.07646251 C-301.26415286 35.08508994 -297.58594109 35.08217735 -293.90771484 35.08065796 C-287.53440422 35.07960866 -281.1611345 35.08588996 -274.78783417 35.09713364 C-265.57308885 35.11337958 -256.35836335 35.11859571 -247.14360526 35.12110962 C-232.19370739 35.12548815 -217.24383134 35.13880152 -202.29394531 35.15771484 C-187.77050892 35.17606956 -173.24707846 35.19022807 -158.72363281 35.19873047 C-157.82858503 35.19925592 -156.93353725 35.19978136 -156.01136681 35.20032273 C-151.52122801 35.20293278 -147.03108917 35.20546021 -142.5409503 35.20794654 C-105.28379507 35.22868395 -68.02666521 35.26406232 -30.76953125 35.30859375 C-30.76953125 28.70859375 -30.76953125 22.10859375 -30.76953125 15.30859375 C-28.37703125 14.33921875 -25.98453125 13.36984375 -23.51953125 12.37109375 C-16.50580351 9.43991941 -11.0326344 5.82108971 -5.3203125 0.8359375 C-2.76953125 -0.69140625 -2.76953125 -0.69140625 0 0 Z " fill="#F9F6F6" transform="translate(426.76953125,402.69140625)"/>
<path d="M0 0 C1.16273438 -0.00708984 2.32546875 -0.01417969 3.5234375 -0.02148438 C10.86453411 0.03311188 15.63176159 0.52702554 21.328125 5.44921875 C23.83304556 9.92647163 23.67535449 14.19785648 23.75 19.25 C23.77964844 20.22904297 23.80929687 21.20808594 23.83984375 22.21679688 C23.91029202 24.62377953 23.96311025 27.0298079 24 29.4375 C24.73863281 29.71722656 25.47726562 29.99695313 26.23828125 30.28515625 C34.5160018 33.55627581 42.19668386 37.49700176 49.109375 43.16796875 C51.07395456 44.77718242 51.07395456 44.77718242 54.25 44.125 C55.1575 43.898125 56.065 43.67125 57 43.4375 C57 42.7775 57 42.1175 57 41.4375 C63.53562033 36.91904644 69.04945981 35.14956203 77 36.4375 C83.01223825 39.04658453 85.82740604 43.94766829 89 49.4375 C89.6496875 50.55382812 90.299375 51.67015625 90.96875 52.8203125 C97.28910609 64.1817945 97.28910609 64.1817945 95.8203125 70.48828125 C93.10695323 76.93573972 89.04408368 79.43840226 82.8125 82.265625 C78.20029505 84.89312657 78.20029505 84.89312657 76.0402832 89.54638672 C75.8526858 93.28125692 76.00039115 96.83634161 76.3125 100.5625 C76.4364729 103.06496319 76.55767707 105.56756547 76.67578125 108.0703125 C76.75739502 109.17262207 76.83900879 110.27493164 76.9230957 111.41064453 C76.99605386 114.28218484 76.68753336 116.65962003 76 119.4375 C76.804375 119.64375 77.60875 119.85 78.4375 120.0625 C84.76983634 122.50655964 91.61654741 126.37548078 95 132.4375 C96.57709595 136.1956861 96.72495473 139.40612202 95.34130859 143.28320312 C91.43853101 152.41255919 86.50651886 162.84110601 78 168.4375 C73.69602829 170.04281203 70.16993015 169.87934313 65.88671875 168.26171875 C61.29196728 166.0008093 57.0266013 163.61287204 53 160.4375 C49.85732498 161.87724767 47.04688677 163.69340469 44.17675781 165.61157227 C29.43486989 175.4375 29.43486989 175.4375 23 175.4375 C23 182.0375 23 188.6375 23 195.4375 C16.60957479 195.46040475 10.21929091 195.48033313 3.82885742 195.49243164 C1.65307127 195.49747308 -0.52271147 195.50430607 -2.69848633 195.51293945 C-5.81853067 195.52501338 -8.93853038 195.53073005 -12.05859375 195.53515625 C-13.03775253 195.54031754 -14.01691132 195.54547882 -15.02574158 195.55079651 C-15.92659988 195.55087204 -16.82745819 195.55094757 -17.75561523 195.55102539 C-18.55281479 195.553246 -19.35001434 195.55546661 -20.17137146 195.55775452 C-22 195.4375 -22 195.4375 -23 194.4375 C-23.08651611 193.02179877 -23.10704904 191.601905 -23.09765625 190.18359375 C-23.09282227 188.90258789 -23.09282227 188.90258789 -23.08789062 187.59570312 C-23.07532227 186.24895508 -23.07532227 186.24895508 -23.0625 184.875 C-23.05798828 183.97330078 -23.05347656 183.07160156 -23.04882812 182.14257812 C-23.03700225 179.90748686 -23.0205222 177.67252563 -23 175.4375 C-23.87664307 175.16160034 -23.87664307 175.16160034 -24.77099609 174.88012695 C-32.96967186 172.23563726 -40.53362818 168.89649868 -46.9375 163 C-49.56703836 160.20095018 -49.56703836 160.20095018 -51.8046875 160.5546875 C-54.78197775 161.7519608 -57.42625163 163.36700365 -60.1875 165 C-64.92464651 167.58100135 -68.50056329 169.21382739 -73.90234375 169.07421875 C-79.86188007 167.26527197 -83.00805765 163.51822311 -86.0625 158.3125 C-86.39830078 157.74063965 -86.73410156 157.1687793 -87.08007812 156.57958984 C-88.07027178 154.8752594 -89.03552836 153.15651722 -90 151.4375 C-90.53496094 150.50421875 -91.06992187 149.5709375 -91.62109375 148.609375 C-94.23412905 143.78303218 -95.97069629 140.04596747 -95 134.4375 C-92.287571 129.52898391 -89.17482611 126.84097303 -84.375 124.125 C-83.78976562 123.77888672 -83.20453125 123.43277344 -82.6015625 123.07617188 C-80.43081233 121.79911357 -78.25299396 120.56399698 -76 119.4375 C-76.00785522 118.1057373 -76.00785522 118.1057373 -76.01586914 116.74707031 C-76.03293868 113.44465482 -76.04546363 110.14228641 -76.05493164 106.83984375 C-76.05995206 105.41210184 -76.06676972 103.98436504 -76.07543945 102.55664062 C-76.08760553 100.50128921 -76.09325128 98.44600593 -76.09765625 96.390625 C-76.10551147 94.53679199 -76.10551147 94.53679199 -76.11352539 92.64550781 C-76.02071737 90.0229329 -75.78356673 87.92105406 -75 85.4375 C-75.72058594 85.16550781 -76.44117188 84.89351563 -77.18359375 84.61328125 C-84.53342336 81.54490578 -91.33486173 77.76777655 -95 70.4375 C-95.9004485 62.84800551 -93.254059 58.1867473 -89.4375 51.75 C-88.92380859 50.82638672 -88.41011719 49.90277344 -87.88085938 48.95117188 C-84.60157943 43.29288635 -81.71304026 39.68687488 -76 36.4375 C-70.26202888 34.98398743 -66.66719077 36.42069177 -61.57055664 39.35864258 C-60.32621938 40.11285971 -59.09312773 40.88598613 -57.87280273 41.6784668 C-54.58628053 43.84729573 -54.58628053 43.84729573 -50.78515625 44.34375 C-48.85465937 43.36371657 -47.39411634 42.28479135 -45.75 40.875 C-41.65102639 37.67218982 -37.26223927 35.37235651 -32.625 33.0625 C-31.91053711 32.70470459 -31.19607422 32.34690918 -30.45996094 31.97827148 C-25.27066895 29.4375 -25.27066895 29.4375 -23 29.4375 C-23.04640625 28.13554687 -23.0928125 26.83359375 -23.140625 25.4921875 C-23.17815847 23.76564804 -23.21455693 22.03908364 -23.25 20.3125 C-23.28351563 19.4565625 -23.31703125 18.600625 -23.3515625 17.71875 C-23.43795451 12.10326958 -22.9004182 8.78995342 -19 4.4375 C-13.48354688 -0.87562231 -7.20610635 -0.12382999 0 0 Z " fill="#7A6D79" transform="translate(373,242.5625)"/>
<path d="M0 0 C1.16765396 -0.00860046 2.33530792 -0.01720093 3.53834534 -0.02606201 C4.82095245 -0.03032196 6.10355957 -0.03458191 7.42503357 -0.03897095 C8.78854582 -0.04687422 10.15205598 -0.05514332 11.51556396 -0.06375122 C15.99635323 -0.0899549 20.47715173 -0.10528159 24.95799255 -0.11953735 C26.50276635 -0.12489854 28.04754009 -0.13027606 29.59231377 -0.13566971 C36.02188718 -0.15729993 42.45145811 -0.17603351 48.88105869 -0.1872921 C58.08118611 -0.20350983 67.28088975 -0.23663256 76.48085743 -0.29369295 C82.95660445 -0.33247989 89.43223856 -0.35193536 95.90809864 -0.35721266 C99.77177602 -0.36085546 103.63500125 -0.37276053 107.49855232 -0.4053154 C111.13897173 -0.43554941 114.77866912 -0.44165421 118.41918755 -0.42993164 C120.37823659 -0.42960819 122.33724208 -0.45397384 124.29612732 -0.47930908 C132.06699293 -0.42486896 137.89237796 0.73802439 144.3915863 5.15390015 C146.64549255 7.50546265 146.64549255 7.50546265 147.9540863 9.77890015 C148.40912537 10.53429077 148.86416443 11.2896814 149.33299255 12.06796265 C151.46807226 16.27509388 151.55127275 20.01287168 151.56858826 24.61947632 C151.57515945 25.37759613 151.58173065 26.13571594 151.58850098 26.91680908 C151.60821688 29.42683006 151.61989426 31.93679119 151.62986755 34.4468689 C151.63394308 35.3057049 151.63801861 36.1645409 151.64221764 37.04940224 C151.66307355 41.59733463 151.67737595 46.14523692 151.68675232 50.69320679 C151.69780098 55.37946048 151.73218423 60.06523729 151.77192402 64.75132275 C151.79813498 68.36399691 151.80644824 71.97655836 151.8100338 75.58931923 C151.81489012 77.31600468 151.8264768 79.04268542 151.84507179 80.76927757 C151.86955394 83.19368032 151.86848194 85.61686149 151.86155701 88.04135132 C151.88077209 89.09920082 151.88077209 89.09920082 151.90037537 90.17842102 C151.8308967 96.8961361 149.30913696 101.81022712 145.1415863 106.90390015 C137.27065433 113.34375358 130.73860109 113.73509971 120.85057068 113.67147827 C119.49292249 113.67690678 118.13528019 113.68403352 116.77764893 113.69271851 C113.11019861 113.71086856 109.44320116 113.70391921 105.77574348 113.69120216 C101.92644715 113.68103104 98.07718798 113.69047921 94.22789001 113.69674683 C87.76529524 113.70401133 81.30288369 113.69446714 74.84031677 113.67538452 C67.38296687 113.65361794 59.9260545 113.66067017 52.46871519 113.68269014 C46.05060965 113.70087844 39.63263535 113.70338578 33.21451235 113.69293547 C29.38798132 113.6867193 25.56165554 113.68581282 21.73513794 113.69908142 C18.13651879 113.71068954 14.53846032 113.70252494 10.93990135 113.67950439 C8.99967583 113.67174646 7.05940254 113.68353079 5.11920166 113.6960144 C-3.39921846 113.61382321 -8.64946268 112.39304189 -15.3584137 106.90390015 C-22.64705132 97.99556527 -22.21512892 89.40576978 -22.17481995 78.44296265 C-22.18006243 76.70714994 -22.18634119 74.97134009 -22.19360352 73.23553467 C-22.20398249 69.60597281 -22.19948352 65.97680359 -22.18482971 62.34725952 C-22.16766161 57.71827204 -22.1911253 53.09052822 -22.22631931 48.46167946 C-22.24838568 44.87888516 -22.24682937 41.29638408 -22.238554 37.71354294 C-22.23773922 36.00806694 -22.24451129 34.30256838 -22.25932503 32.59715652 C-22.3915468 14.61940904 -22.3915468 14.61940904 -16.6084137 7.15390015 C-11.3653105 2.29814692 -7.23207465 0.03963912 0 0 Z " fill="#FED05B" transform="translate(64.60841369628906,168.84609985351563)"/>
<path d="M0 0 C113.19 0 226.38 0 343 0 C343.33 3.63 343.66 7.26 344 11 C342.69317261 11.00054477 341.38634521 11.00108953 340.03991699 11.00165081 C309.01054781 11.01569839 277.98132992 11.05546543 246.95204371 11.12685562 C243.1319293 11.13562225 239.31181442 11.14417208 235.49169922 11.15258789 C234.73119094 11.15426695 233.97068265 11.15594602 233.18712866 11.15767596 C220.87702667 11.18433752 208.56697123 11.19344043 196.25684333 11.19604143 C183.62320097 11.19910211 170.98969313 11.22106203 158.35611153 11.26052457 C150.56199332 11.28427604 142.76814372 11.29332894 134.97399431 11.28351311 C128.99492469 11.27756324 123.01623822 11.29792256 117.03722954 11.32806015 C114.58629146 11.33630456 112.13530765 11.33603036 109.68437386 11.32659721 C106.33664617 11.31498804 102.99043232 11.33407674 99.64282227 11.36076355 C98.67393318 11.35009029 97.7050441 11.33941703 96.70679474 11.32842034 C90.3010784 11.42362566 85.92918284 12.8146079 81 17 C76.87426616 22.18361431 75.91394895 26.06096985 75.75390625 32.54296875 C75.70459961 34.15461914 75.70459961 34.15461914 75.65429688 35.79882812 C75.59363045 38.03832258 75.53627901 40.27790957 75.48242188 42.51757812 C75.04318818 56.41559517 72.29326376 67.15059361 62 77 C53.70971983 83.91155107 42.78133066 85.7005636 32.23828125 85.41015625 C23.13084363 84.25662073 15.00029552 79.93784169 9 73 C-6.39351443 51.35287034 0 26.70160968 0 0 Z " fill="#DEDBEE" transform="translate(7,427)"/>
<path d="M0 0 C1.353697 -0.00576172 2.70738618 -0.01370319 4.061059 -0.02363622 C7.78003815 -0.0445266 11.49837653 -0.03418497 15.21735811 -0.01870513 C19.22835432 -0.00740429 23.23923941 -0.02484799 27.25021362 -0.03860474 C35.10733639 -0.06085532 42.96422055 -0.05602791 50.82135272 -0.04154153 C57.20612724 -0.03025642 63.59083482 -0.02871523 69.97561646 -0.03416061 C70.88381388 -0.03492678 71.7920113 -0.03569294 72.72772986 -0.03648233 C74.57262955 -0.03808093 76.41752923 -0.03970199 78.26242888 -0.04134528 C95.56814716 -0.05560811 112.87373308 -0.0392017 130.17942965 -0.01234345 C145.03334166 0.00999582 159.88705831 0.00611584 174.7409668 -0.01693726 C191.98411877 -0.04368584 209.22715469 -0.05423477 226.47032452 -0.03887594 C228.30849391 -0.03728317 230.14666333 -0.03571131 231.98483276 -0.03416061 C233.34150727 -0.03300355 233.34150727 -0.03300355 234.72558933 -0.03182311 C241.1038005 -0.02750328 247.48193816 -0.03479874 253.86013794 -0.04655838 C261.63151088 -0.06057148 269.40263127 -0.05680863 277.17397523 -0.03015466 C281.1402427 -0.01700027 285.10608887 -0.01189129 289.07235336 -0.02840042 C292.70200708 -0.04328012 296.33084831 -0.03514593 299.96042812 -0.00851266 C301.89806849 -0.00026551 303.8357651 -0.01662343 305.7733469 -0.03379881 C315.15144909 0.07258355 315.15144909 0.07258355 318.29396057 2.9480381 C319.98022461 5.63491821 319.98022461 5.63491821 319.98022461 9.25991821 C319.03478702 12.45077008 318.61651013 13.73679263 315.98022461 15.63491821 C313.39544953 16.92730575 311.53709348 16.76511433 308.64121532 16.7719326 C306.93126189 16.77954442 306.93126189 16.77954442 305.18676394 16.78731 C303.29210823 16.78805664 303.29210823 16.78805664 301.35917664 16.78881836 C300.01220298 16.79283169 298.66523052 16.79726969 297.31825954 16.80209792 C293.60411753 16.81408356 289.88998853 16.81971645 286.17583096 16.82427907 C282.17504274 16.83022755 278.17427014 16.84183919 274.17349243 16.85256958 C264.50570488 16.87710966 254.83791216 16.89172244 245.17010304 16.90462965 C242.44085156 16.9083402 239.7116006 16.91231354 236.98234963 16.91638231 C220.04440679 16.94161581 203.10646317 16.96367511 186.16850567 16.97611046 C182.2438475 16.97904029 178.31918936 16.98200194 174.39453125 16.98501587 C172.93129854 16.98613495 172.93129854 16.98613495 171.43850557 16.98727663 C155.62806515 16.99993647 139.81773704 17.03316714 124.00734916 17.0748177 C107.78593292 17.11720185 91.56457423 17.14080136 75.34310275 17.14603102 C66.2309289 17.14944899 57.11893059 17.1612495 48.00681114 17.19413376 C40.24821353 17.22208705 32.48982744 17.23315443 24.73118337 17.2219383 C20.77098491 17.21673959 16.81122972 17.21971623 12.8510952 17.24440384 C9.22691808 17.266809 5.60350485 17.26622578 1.97931514 17.24719997 C0.0444787 17.24305334 -1.89036172 17.26361011 -3.82508451 17.28498685 C-13.18837287 17.19874465 -13.18837287 17.19874465 -16.29333782 14.28441811 C-18.43852934 10.99227201 -18.82241344 9.48758087 -18.01977539 5.63491821 C-13.61881185 -1.11913588 -7.45131388 -0.06605096 0 0 Z " fill="#DFDCEE" transform="translate(68.019775390625,125.36508178710938)"/>
<path d="M0 0 C7.95933775 5.16920996 13.44964142 12.85565149 16 22 C17.91475516 33.47017027 15.79346877 43.62783745 9.3125 53.25 C3.22799245 60.83647666 -5.62434895 64.99845652 -15 67 C-25.43903202 68.03205989 -33.88422133 65.60788872 -42.3125 59.375 C-47.13746347 55.27109625 -50.25868425 50.67711675 -53 45 C-53.37382812 44.25621094 -53.74765625 43.51242188 -54.1328125 42.74609375 C-56.51592174 35.19958117 -56.45310776 24.18550592 -53.375 16.875 C-52.2578125 14.87890625 -52.2578125 14.87890625 -51 13 C-50.56429687 12.30777344 -50.12859375 11.61554687 -49.6796875 10.90234375 C-38.30672686 -5.72206592 -17.41722491 -10.19972739 0 0 Z " fill="#6A606A" transform="translate(194,44)"/>
<path d="M0 0 C0.86968652 -0.00623996 1.73937305 -0.01247993 2.63541371 -0.01890898 C5.55515473 -0.03488805 8.47406659 -0.02221548 11.39381409 -0.00964355 C13.48479195 -0.01506252 15.575766 -0.02218391 17.66673279 -0.03088379 C23.35062956 -0.04914787 29.0342365 -0.04203649 34.71813846 -0.02936745 C40.66155716 -0.01925446 46.60495071 -0.02862852 52.54837036 -0.03491211 C62.53123946 -0.04219403 72.51399028 -0.03258706 82.49684143 -0.0135498 C94.04284666 0.00821394 105.58856931 0.00117324 117.13456768 -0.02085543 C127.04125084 -0.03900095 136.94784886 -0.04157169 146.85454327 -0.03110075 C152.77414365 -0.02486042 158.69361117 -0.02404497 164.61320305 -0.0372467 C170.17908722 -0.04879195 175.74460677 -0.0408034 181.31045151 -0.01766968 C183.35468375 -0.01237528 185.39894662 -0.01390879 187.44316673 -0.02272034 C190.23108172 -0.03363057 193.01782406 -0.01996681 195.80566406 0 C196.61714336 -0.00892289 197.42862266 -0.01784577 198.26469225 -0.02703905 C202.04703879 0.02560426 204.2421084 0.36541717 207.46611118 2.41468048 C209.6116305 4.66000027 210.15091595 5.45681915 210.09132385 8.50793457 C210.10421448 9.16793457 210.1171051 9.82793457 210.13038635 10.50793457 C209.06732715 13.70961875 207.28538993 14.71438988 204.46632385 16.50793457 C201.46927806 16.89355492 198.84365884 17.04896951 195.85035706 17.01586914 C194.98389966 17.0221091 194.11744226 17.02834907 193.22472858 17.03477812 C190.32191047 17.05073059 187.41992942 17.03809504 184.5171051 17.0255127 C182.43583181 17.03093281 180.35456235 17.03805484 178.27330017 17.04675293 C172.62045273 17.0650023 166.96789701 17.05791197 161.3150444 17.04523659 C155.40232806 17.03511735 149.48963687 17.04449928 143.57691956 17.05078125 C133.647105 17.05806078 123.71740941 17.04846188 113.78761292 17.02941895 C102.30350238 17.0076497 90.81967589 17.01470085 79.33557224 17.03672457 C69.47982379 17.0548698 59.6241609 17.05744115 49.76840115 17.04696989 C43.88011455 17.04073017 37.99196151 17.03991257 32.10368347 17.05311584 C26.56815402 17.06466088 21.03299118 17.05667295 15.49750137 17.03353882 C13.46455621 17.02824457 11.43158026 17.0297777 9.39864731 17.03858948 C6.62611028 17.04950013 3.85475229 17.03583557 1.08229065 17.01586914 C-0.1280687 17.02925347 -0.1280687 17.02925347 -1.36287975 17.04290819 C-5.13590816 16.9901057 -7.31706338 16.64564686 -10.53286743 14.60118866 C-12.53367615 12.50793457 -12.53367615 12.50793457 -13.1625824 10.50793457 C-13.14066833 9.84793457 -13.11875427 9.18793457 -13.09617615 8.50793457 C-13.09746521 7.84793457 -13.09875427 7.18793457 -13.1000824 6.50793457 C-11.23143906 -0.0903095 -5.887847 -0.06456427 0 0 Z " fill="#7E727D" transform="translate(48.53367614746094,308.4920654296875)"/>
<path d="M0 0 C0.92685626 -0.00694553 1.85371251 -0.01389106 2.80865532 -0.02104706 C5.92183868 -0.03937834 9.03426527 -0.02903557 12.1474762 -0.01878357 C14.3763842 -0.02583893 16.60528741 -0.03458233 18.83418274 -0.04489136 C24.89408386 -0.06743801 30.95372446 -0.06443321 37.01365161 -0.05556989 C42.06855682 -0.05046825 47.12341271 -0.05774587 52.17831284 -0.06504196 C64.78331404 -0.0830313 77.38815913 -0.0766132 89.9931441 -0.05887216 C100.94067781 -0.04417649 111.88793703 -0.0588008 122.83543538 -0.08764232 C134.07584465 -0.11703502 145.31613037 -0.12750063 156.55658776 -0.11846012 C162.86746052 -0.1135238 169.17811989 -0.11578479 175.48896599 -0.13624763 C181.42260266 -0.15456543 187.35572818 -0.14869334 193.28933716 -0.12404823 C195.46902777 -0.11902803 197.64875706 -0.12256125 199.82841682 -0.13519669 C202.80042882 -0.15106443 205.77074471 -0.13623506 208.74267578 -0.11352539 C209.60862836 -0.12536112 210.47458094 -0.13719685 211.3667745 -0.14939123 C215.6942954 -0.08204554 217.44230587 0.14417874 221.00933933 2.82736301 C222.93482971 5.5146637 222.93482971 5.5146637 222.93482971 9.1396637 C221.95060149 12.46143394 221.56157809 13.46662365 218.93482971 15.5146637 C215.85641929 15.80984538 212.98027659 15.91902884 209.90052795 15.89561462 C208.96494789 15.9002946 208.02936782 15.90497457 207.06543684 15.90979636 C203.91694105 15.92180357 200.76887594 15.91226672 197.62037659 15.90284729 C195.36867009 15.90691044 193.11696559 15.91225087 190.86526489 15.91877747 C184.73935396 15.93248731 178.61359411 15.92713726 172.48768044 15.91764021 C166.08688057 15.9100626 159.68609393 15.91708393 153.28529358 15.92179871 C141.84555334 15.92761207 130.40589702 15.91826947 118.96617097 15.90302069 C108.58931602 15.88961702 98.21256175 15.89194497 87.83570862 15.90577698 C75.79166222 15.92182373 63.7476919 15.92781175 51.70363092 15.91894019 C45.32579283 15.91425499 38.94802411 15.91366205 32.57019043 15.92354965 C26.5751242 15.93219407 20.58024872 15.92624362 14.58520317 15.90886688 C12.38048558 15.90488852 10.17575204 15.90605899 7.97104073 15.91265488 C4.97018506 15.92080717 1.96994736 15.91062535 -1.03086853 15.89561462 C-1.91111081 15.90230679 -2.79135308 15.90899895 -3.69826937 15.91589391 C-9.6028702 15.85828362 -9.6028702 15.85828362 -11.78389788 14.23716223 C-13.57789801 11.8253702 -13.47657399 9.48009575 -13.56126404 6.54981995 C-11.8492113 -0.4736405 -5.93283851 -0.05631431 0 0 Z " fill="#7A6D79" transform="translate(49.06517028808594,338.48533630371094)"/>
<path d="M0 0 C0.87447564 -0.00623996 1.74895128 -0.01247993 2.64992619 -0.01890898 C5.5858192 -0.03488846 8.52088766 -0.02221535 11.45678711 -0.00964355 C13.55923956 -0.01506247 15.66168821 -0.02218382 17.76412964 -0.03088379 C23.4789495 -0.04914743 29.1934811 -0.04203696 34.90830612 -0.02936745 C40.88288919 -0.01925558 46.85744723 -0.02862808 52.83203125 -0.03491211 C62.86617474 -0.04219379 72.90020054 -0.03258709 82.93432617 -0.0135498 C94.54283485 0.00821985 106.15106253 0.00116885 117.7595644 -0.02085543 C127.71803604 -0.03899453 137.67642299 -0.04157502 147.63490582 -0.03110075 C153.58633214 -0.02485765 159.5376263 -0.02405267 165.48904419 -0.0372467 C171.08365183 -0.04878285 176.67789642 -0.04082018 182.27246475 -0.01766968 C184.32840496 -0.01237065 186.38437561 -0.01391666 188.4403038 -0.02272034 C191.24170532 -0.0336122 194.04193534 -0.01998932 196.84326172 0 C198.07068635 -0.01338433 198.07068635 -0.01338433 199.32290745 -0.02703905 C202.88070743 0.02238057 205.00578814 0.20695579 207.92652893 2.32093048 C210.12277071 5.53354741 209.96409161 7.7107093 209.42163086 11.50793457 C207.92652893 13.69493866 207.92652893 13.69493866 205.42163086 15.50793457 C202.43877224 15.90066598 199.82565389 16.04839034 196.84326172 16.01586914 C195.53154826 16.02522908 195.53154826 16.02522908 194.19333553 16.03477812 C191.25744252 16.0507576 188.32237406 16.03808449 185.38647461 16.0255127 C183.28402216 16.03093161 181.18157351 16.03805296 179.07913208 16.04675293 C173.36431222 16.06501658 167.64978062 16.0579061 161.9349556 16.04523659 C155.96037252 16.03512472 149.98581449 16.04449722 144.01123047 16.05078125 C133.97708698 16.05806293 123.94306118 16.04845623 113.90893555 16.02941895 C102.30042687 16.00764929 90.69219918 16.01470029 79.08369732 16.03672457 C69.12522567 16.05486367 59.16683873 16.05744416 49.2083559 16.04696989 C43.25692958 16.04072679 37.30563542 16.03992181 31.35421753 16.05311584 C25.75960989 16.06465199 20.16536529 16.05668932 14.57079697 16.03353882 C12.51485676 16.02823979 10.45888611 16.0297858 8.40295792 16.03858948 C5.6015564 16.04948134 2.80132638 16.03585846 0 16.01586914 C-0.81828309 16.02479203 -1.63656618 16.03371491 -2.47964573 16.04290819 C-6.03744571 15.99348857 -8.16252642 15.80891335 -11.08326721 13.69493866 C-13.279509 10.48232173 -13.12082989 8.30515984 -12.57836914 4.50793457 C-9.29703742 -0.2919294 -5.36092769 -0.0584577 0 0 Z " fill="#7A6D79" transform="translate(48.578369140625,368.4920654296875)"/>
<path d="M0 0 C7.43016284 4.49087784 13.33258233 11.1422021 15.65625 19.60546875 C17.04940636 29.69500598 16.68069442 39.0766768 10.65625 47.60546875 C9.79 48.96671875 9.79 48.96671875 8.90625 50.35546875 C2.85444779 56.40727096 -4.28699943 60.79070437 -12.96484375 60.98608398 C-23.70253522 60.95690547 -31.54935439 59.12926096 -39.58984375 51.52734375 C-46.76147226 43.66890004 -48.86561703 35.41601967 -48.6484375 24.8828125 C-47.79123208 15.6623593 -43.28952424 8.59320516 -36.34375 2.60546875 C-25.16810626 -5.35369015 -12.3091602 -5.90641155 0 0 Z " fill="#F9F6F6" transform="translate(389.34375,316.39453125)"/>
<path d="M0 0 C15.84 0 31.68 0 48 0 C48 19.47 48 38.94 48 59 C32.16 59 16.32 59 0 59 C0 39.53 0 20.06 0 0 Z " fill="#BBEB6B" transform="translate(141,198)"/>
<path d="M0 0 C1.56427734 -0.03577148 1.56427734 -0.03577148 3.16015625 -0.07226562 C11.14801549 -0.05730709 17.79574435 1.6732123 23.99047852 6.93457031 C28.21742359 11.54010603 30.44844651 17.37359062 30.8125 23.5625 C30.53603154 29.21351532 28.32600796 33.56522307 24.3984375 37.5859375 C19.37209302 42.06395349 19.37209302 42.06395349 16.375 43.5625 C17.92595581 47.18419141 20.14365052 49.68768019 22.8125 52.5625 C30.375 60.73548188 30.375 60.73548188 30.375 65.0625 C29.18429753 69.22995865 28.11142329 70.43953222 24.375 72.5625 C21.9765625 72.91015625 21.9765625 72.91015625 19.375 72.5625 C17.1640625 70.875 17.1640625 70.875 15 68.5625 C14.2265625 67.74394531 13.453125 66.92539063 12.65625 66.08203125 C11.9034375 65.25058594 11.150625 64.41914062 10.375 63.5625 C9.7046875 62.82386719 9.034375 62.08523437 8.34375 61.32421875 C5.53715899 58.16680387 2.88268812 54.96364587 0.375 51.5625 C0.35373047 53.20798828 0.35373047 53.20798828 0.33203125 54.88671875 C0.28511292 56.34118698 0.23686562 57.79561277 0.1875 59.25 C0.18169922 59.97123047 0.17589844 60.69246094 0.16992188 61.43554688 C0.00086447 65.54927715 -0.34832449 67.20351933 -2.94921875 70.578125 C-5.625 72.5625 -5.625 72.5625 -9.25 72.625 C-13.02138282 71.43771282 -13.72829666 70.90973493 -15.625 67.5625 C-16.01268005 64.7166748 -16.01268005 64.7166748 -16.02905273 61.38867188 C-16.04807899 59.51653015 -16.04807899 59.51653015 -16.06748962 57.60656738 C-16.06543826 56.24812657 -16.06245029 54.88968689 -16.05859375 53.53125 C-16.06315618 52.13407131 -16.06846194 50.73689487 -16.07447815 49.33972168 C-16.08340487 46.41437653 -16.08099092 43.48930446 -16.07104492 40.56396484 C-16.05954809 36.81772707 -16.07977837 33.07243091 -16.10896206 29.32631683 C-16.12731886 26.44205759 -16.12703289 23.55802431 -16.12132454 20.67372131 C-16.1211713 19.29263487 -16.12721817 17.91153313 -16.13961601 16.53050232 C-16.15451339 14.59916358 -16.14122537 12.66766976 -16.12670898 10.73632812 C-16.12645973 9.08896667 -16.12645973 9.08896667 -16.12620544 7.4083252 C-14.60778312 -1.21321825 -6.96190119 -0.07155521 0 0 Z " fill="#695F69" transform="translate(103.625,38.4375)"/>
<path d="M0 0 C1.87797272 -0.01485695 1.87797272 -0.01485695 3.79388428 -0.03001404 C5.17875769 -0.02577603 6.56363016 -0.02121817 7.94850159 -0.01637268 C9.40894595 -0.02207578 10.86938586 -0.02903981 12.32981873 -0.03717041 C16.29473136 -0.05512408 20.25942295 -0.05392931 24.22436404 -0.04822803 C27.53456692 -0.04513925 30.84472716 -0.05122517 34.15492398 -0.05726677 C41.96424499 -0.07131772 49.77345663 -0.06974608 57.58277893 -0.05836487 C65.63879252 -0.04688356 73.69447321 -0.06095808 81.75044292 -0.08776134 C88.66776577 -0.10991433 95.58498409 -0.11655663 102.5023399 -0.11068493 C106.63345088 -0.1073131 110.76434846 -0.10974522 114.89542961 -0.12693596 C118.78040116 -0.14239671 122.6648794 -0.1384597 126.54983139 -0.11963081 C127.97484683 -0.11594242 129.39989875 -0.11906079 130.8248806 -0.1295166 C132.77156269 -0.1427088 134.71837206 -0.12878182 136.66503906 -0.11352539 C138.29849856 -0.11321146 138.29849856 -0.11321146 139.96495724 -0.1128912 C143.63132944 0.51325914 145.30933904 1.75073323 147.89601135 4.38768005 C148.45851135 7.88768005 148.45851135 7.88768005 147.89601135 11.38768005 C145.76184472 14.21847127 144.58065353 15.26562735 141.05677032 15.89383793 C139.95212685 15.89664485 138.84748337 15.89945177 137.70936584 15.90234375 C136.43911057 15.91506821 135.16885529 15.92779266 133.86010742 15.94090271 C132.45475583 15.93472045 131.04940605 15.92811443 129.64405823 15.92112732 C128.16228374 15.92818549 126.68051646 15.93693008 125.19876099 15.94723511 C121.17601229 15.96974937 117.15365665 15.96678497 113.13086891 15.95791364 C109.77333955 15.95280639 106.41588422 15.96009406 103.05836248 15.96738571 C95.13878257 15.9843908 87.21939532 15.98081236 79.29981995 15.96409607 C71.12669901 15.94716785 62.95411189 15.96301723 54.78104925 15.99531895 C47.76521267 16.02199763 40.74954244 16.02929574 33.73366022 16.02080387 C29.54273792 16.01587031 25.35213696 16.01811328 21.16125488 16.03859138 C17.22119514 16.05692216 13.28190469 16.05102275 9.34188652 16.02639198 C7.89549076 16.02137595 6.44903663 16.02489453 5.00268745 16.03754044 C3.02939467 16.05342956 1.05591571 16.03552625 -0.91734314 16.01586914 C-2.02198662 16.01528283 -3.1266301 16.01469652 -4.26474762 16.01409245 C-7.10398865 15.38768005 -7.10398865 15.38768005 -9.49065399 13.07498074 C-11.10398865 10.38768005 -11.10398865 10.38768005 -11.10398865 6.76268005 C-9.3090864 0.70488496 -5.95650091 0.01329573 0 0 Z " fill="#685E68" transform="translate(254.10398864746094,190.61231994628906)"/>
<path d="M0 0 C1.02931641 -0.00515625 2.05863281 -0.0103125 3.11914062 -0.015625 C4.18970703 -0.00015625 5.26027344 0.0153125 6.36328125 0.03125 C7.94012695 0.00804687 7.94012695 0.00804687 9.54882812 -0.015625 C17.78507745 0.02537686 24.12494474 1.53276583 30.48828125 6.90625 C35.96917629 13.48332405 38.04664122 18.19643777 37.95703125 26.67578125 C37.2912786 33.43501992 33.75271427 38.17959313 28.67578125 42.53125 C22.97269335 46.63747329 19.48463445 47.65793673 12.48828125 47.59375 C11.21597656 47.58472656 9.94367187 47.57570312 8.6328125 47.56640625 C7.16908203 47.54900391 7.16908203 47.54900391 5.67578125 47.53125 C5.68625488 48.08586914 5.69672852 48.64048828 5.70751953 49.21191406 C5.74920129 51.73497959 5.77514563 54.25797253 5.80078125 56.78125 C5.81753906 57.65394531 5.83429687 58.52664062 5.8515625 59.42578125 C5.85800781 60.27011719 5.86445312 61.11445312 5.87109375 61.984375 C5.88156738 62.75942383 5.89204102 63.53447266 5.90283203 64.33300781 C5.64185898 66.85967591 5.04023889 68.39414766 3.67578125 70.53125 C0.67578125 72.53125 0.67578125 72.53125 -2.82421875 72.34375 C-7.35769659 71.2913355 -7.35769659 71.2913355 -9.32421875 68.53125 C-9.7118988 65.76771545 -9.7118988 65.76771545 -9.72827148 62.37915039 C-9.74095566 61.11095963 -9.75363983 59.84276886 -9.76670837 58.53614807 C-9.76465686 57.15039914 -9.76166876 55.76465133 -9.7578125 54.37890625 C-9.76237341 52.95787811 -9.76767871 51.53685218 -9.7736969 50.11582947 C-9.78263293 47.13743124 -9.78019981 44.15930106 -9.77026367 41.1809082 C-9.75877715 37.36626634 -9.77897668 33.55255061 -9.80818081 29.73803043 C-9.82653898 26.80315789 -9.82625116 23.8685074 -9.82054329 20.93359184 C-9.82039 19.52738585 -9.82644055 18.12116488 -9.83883476 16.7150135 C-9.85373137 14.74764208 -9.84044454 12.78011841 -9.82592773 10.81274414 C-9.82576157 9.69372208 -9.8255954 8.57470001 -9.82542419 7.42176819 C-8.83554931 1.71302863 -5.44953897 0.02651613 0 0 Z " fill="#695F69" transform="translate(42.32421875,38.46875)"/>
<path d="M0 0 C3.25 2.3125 3.25 2.3125 5 5 C5.63007693 8.99048721 5.63021887 11.01685857 3.4375 14.4375 C-0.01946705 16.65350452 -1.93175941 16.53353975 -6 16 C-7.5184487 15.3764954 -9.01844271 14.70670535 -10.5 14 C-15.51363586 11.64113928 -19.08594618 11.00417373 -24.48046875 12.84765625 C-29.67360719 15.11054523 -33.52564464 17.55161393 -36.22265625 22.62890625 C-38.25021602 28.81347299 -38.04065366 35.48758107 -35.375 41.4375 C-32.6701917 46.05781311 -29.1368433 49.2877189 -24 51 C-22.04524991 51.1447963 -20.0848862 51.22067502 -18.125 51.25 C-17.09632813 51.27578125 -16.06765625 51.3015625 -15.0078125 51.328125 C-11.591408 50.95542633 -9.76441411 49.9984308 -7 48 C-6.566875 47.443125 -6.13375 46.88625 -5.6875 46.3125 C-3.19787363 44.37612394 -0.95578906 44.57931891 2.125 44.7265625 C4 45 4 45 6 46 C7.68474579 49.36949158 7.90976074 52.41369681 7 56 C3.00549637 62.00386 -3.48599572 65.91518284 -10.421875 67.58203125 C-21.03824574 69.30317014 -30.47840032 67.45198513 -39.3125 61.1875 C-40.56608944 60.1539283 -41.79683617 59.09185793 -43 58 C-43.54398437 57.51015625 -44.08796875 57.0203125 -44.6484375 56.515625 C-51.18283966 49.81537507 -54.24682308 40.53244317 -54.5625 31.3125 C-54.09595005 20.27526124 -48.87194878 11.29166429 -41.0703125 3.67578125 C-29.11344315 -6.00251489 -13.63335144 -6.4880335 0 0 Z " fill="#6A616A" transform="translate(355,43)"/>
<path d="M0 0 C1.83691406 -0.00773437 1.83691406 -0.00773437 3.7109375 -0.015625 C5.61746094 0.00757813 5.61746094 0.00757813 7.5625 0.03125 C8.83351563 0.01578125 10.10453125 0.0003125 11.4140625 -0.015625 C12.63867188 -0.01046875 13.86328125 -0.0053125 15.125 0 C16.79755859 0.00676758 16.79755859 0.00676758 18.50390625 0.01367188 C22.21456754 0.64159348 23.89667575 1.92444994 26.5625 4.53125 C27.2265625 6.53125 27.2265625 6.53125 27.1875 8.53125 C27.20039063 9.19125 27.21328125 9.85125 27.2265625 10.53125 C26.13503972 13.8186598 24.53422755 14.80696136 21.5625 16.53125 C18.43851975 16.99955616 15.39967233 16.91051832 12.25 16.78125 C11.41404297 16.76320313 10.57808594 16.74515625 9.71679688 16.7265625 C7.66486772 16.67966126 5.61353244 16.60792411 3.5625 16.53125 C3.5625 20.49125 3.5625 24.45125 3.5625 28.53125 C4.64789063 28.47324219 5.73328125 28.41523437 6.8515625 28.35546875 C8.29683176 28.30854442 9.74214784 28.26304713 11.1875 28.21875 C11.90035156 28.17685547 12.61320312 28.13496094 13.34765625 28.09179688 C17.34431492 28.00013039 19.86684538 28.33418809 23.08203125 30.82421875 C25.5625 33.53125 25.5625 33.53125 25.625 37.15625 C24.63087335 40.31406405 24.18619945 41.6421864 21.5625 43.53125 C18.37425432 45.12537284 14.93353338 44.63299735 11.4375 44.59375 C10.68339844 44.58923828 9.92929687 44.58472656 9.15234375 44.58007812 C7.28902873 44.56828499 5.42575445 44.55034942 3.5625 44.53125 C3.5625 48.49125 3.5625 52.45125 3.5625 56.53125 C4.80386719 56.48484375 6.04523438 56.4384375 7.32421875 56.390625 C8.96612171 56.35309579 10.60805077 56.31669686 12.25 56.28125 C13.06662109 56.24773437 13.88324219 56.21421875 14.72460938 56.1796875 C18.78870955 56.11387211 21.01936937 56.21610874 24.60546875 58.296875 C26.6496796 60.63078439 27.24699608 61.48505082 27.1875 64.53125 C27.20039063 65.19125 27.21328125 65.85125 27.2265625 66.53125 C26.18829152 69.65827789 24.26261335 70.73025274 21.5625 72.53125 C18.50390625 73.04882812 18.50390625 73.04882812 15.125 73.0625 C13.28808594 73.07023437 13.28808594 73.07023437 11.4140625 73.078125 C10.14304687 73.06265625 8.87203125 73.0471875 7.5625 73.03125 C5.65597656 73.05445312 5.65597656 73.05445312 3.7109375 73.078125 C2.48632812 73.07296875 1.26171875 73.0678125 0 73.0625 C-1.11503906 73.05798828 -2.23007812 73.05347656 -3.37890625 73.04882812 C-7.20435084 72.40148278 -8.71031982 71.2700147 -11.4375 68.53125 C-12.07241821 65.64746094 -12.07241821 65.64746094 -12.08447266 62.265625 C-12.10023346 60.99750977 -12.11599426 59.72939453 -12.13223267 58.42285156 C-12.12328285 57.04230886 -12.11302785 55.6617741 -12.1015625 54.28125 C-12.10493203 52.86164942 -12.1097858 51.44205166 -12.11605835 50.02246094 C-12.12342347 47.04985031 -12.11273747 44.07799181 -12.08935547 41.10546875 C-12.06086586 37.29844296 -12.07727206 33.49317941 -12.10721779 29.68621826 C-12.12530172 26.75556197 -12.11952817 23.82532228 -12.10657883 20.89465332 C-12.10324774 19.4912495 -12.10732159 18.08780762 -12.11897659 16.68444824 C-12.13169924 14.72193137 -12.10886248 12.75928156 -12.08447266 10.796875 C-12.08049469 9.68086914 -12.07651672 8.56486328 -12.07241821 7.41503906 C-11.4375 4.53125 -11.4375 4.53125 -9.08822632 2.17199707 C-5.83605654 0.15896842 -3.80735484 0.01540548 0 0 Z " fill="#6B616B" transform="translate(270.4375,38.46875)"/>
<path d="M0 0 C1.00707001 -0.00700928 2.01414001 -0.01401855 3.05172729 -0.02124023 C6.37721411 -0.03883055 9.70184843 -0.02719328 13.02734375 -0.01367188 C15.33992679 -0.01636648 17.65250873 -0.02024863 19.96508789 -0.02526855 C24.8104939 -0.03116503 29.65560486 -0.02259549 34.50097656 -0.00390625 C40.71205634 0.01888297 46.92244474 0.00576075 53.13349915 -0.01819611 C57.90845957 -0.03264979 62.68325607 -0.02804997 67.45822144 -0.01768494 C69.74836306 -0.01501648 72.03851956 -0.01829155 74.3286438 -0.02760315 C77.52939278 -0.03776124 80.72902193 -0.02227686 83.9296875 0 C85.3496553 -0.01214539 85.3496553 -0.01214539 86.79830933 -0.02453613 C91.05551548 0.03035951 93.35914929 0.14318237 97.05053711 2.42492676 C99.10567096 4.67152538 99.64840797 5.51909011 99.58984375 8.51757812 C99.60917969 9.50757813 99.60917969 9.50757813 99.62890625 10.51757812 C98.54665194 13.77707347 96.87508427 14.72259594 93.96484375 16.51757812 C90.58520476 17.11021951 87.24617463 17.06410995 83.82202148 17.03515625 C82.80359161 17.04216553 81.78516174 17.0491748 80.73587036 17.05639648 C77.37311454 17.07398639 74.01120172 17.06235052 70.6484375 17.04882812 C68.3110386 17.05152253 65.97364079 17.05540452 63.63624573 17.0604248 C58.73956624 17.06632105 53.84317874 17.05775169 48.9465332 17.0390625 C42.66585552 17.01626069 36.38586107 17.02940364 30.1052084 17.05335236 C25.27967669 17.0677959 20.45430739 17.06321111 15.62877083 17.05284119 C13.31268292 17.05017058 10.99658033 17.05345534 8.68050957 17.0627594 C5.44603186 17.07290222 2.21266622 17.05745513 -1.02172852 17.03515625 C-1.98131973 17.04325317 -2.94091095 17.0513501 -3.92958069 17.05969238 C-10.41150192 16.97677686 -10.41150192 16.97677686 -13.62559509 14.61022949 C-15.13860751 12.36399315 -15.6029034 11.20412098 -15.59765625 8.51757812 C-15.61957031 7.85757812 -15.64148437 7.19757813 -15.6640625 6.51757812 C-13.41028867 -0.64970263 -6.13444011 -0.0524696 0 0 Z " fill="#7E727D" transform="translate(51.03515625,398.482421875)"/>
<path d="M0 0 C1.24245483 -0.00574036 1.24245483 -0.00574036 2.51000977 -0.01159668 C4.25831317 -0.01431425 6.00665734 -0.00696381 7.75488281 0.00976562 C10.42865777 0.03117918 13.09974596 0.00996056 15.7734375 -0.015625 C17.47396425 -0.01298169 19.17448934 -0.00785665 20.875 0 C22.07201538 -0.01214539 22.07201538 -0.01214539 23.29321289 -0.02453613 C26.85857567 0.03559742 29.01650429 0.22617589 31.94140625 2.34570312 C34.13970894 5.55706175 33.97994271 7.73415101 33.4375 11.53125 C32.125 13.96875 32.125 13.96875 29.4375 15.53125 C26.76879883 15.68383789 26.76879883 15.68383789 23.76953125 15.62890625 C22.27450073 15.60775757 22.27450073 15.60775757 20.74926758 15.58618164 C19.60494263 15.55899048 19.60494263 15.55899048 18.4375 15.53125 C18.44194122 16.16129944 18.44638245 16.79134888 18.45095825 17.44049072 C18.49518182 23.9939955 18.52536242 30.54745793 18.54736328 37.10107422 C18.55742504 39.54738079 18.57107581 41.99367533 18.58837891 44.43994141 C18.61261919 47.95478282 18.62398138 51.4694653 18.6328125 54.984375 C18.64313507 56.0792926 18.65345764 57.17421021 18.66409302 58.30230713 C18.66424408 59.32306335 18.66439514 60.34381958 18.66455078 61.39550781 C18.668992 62.29263489 18.67343323 63.18976196 18.67800903 64.11407471 C18.41526812 66.75468591 17.88026582 68.31293235 16.4375 70.53125 C13.4375 72.53125 13.4375 72.53125 10 72.46875 C6.4375 71.53125 6.4375 71.53125 4.23925781 69.68676758 C1.51704759 64.91921106 1.94258097 60.50014086 2.046875 55.10546875 C2.05536469 53.45137749 2.05536469 53.45137749 2.06402588 51.76387024 C2.0863825 48.24838508 2.13657979 44.73392613 2.1875 41.21875 C2.20756582 38.83269703 2.22581645 36.44662806 2.2421875 34.06054688 C2.28624499 28.2170989 2.35315082 22.37424777 2.4375 16.53125 C1.82261719 16.55300293 1.20773437 16.57475586 0.57421875 16.59716797 C-0.23402344 16.61408691 -1.04226563 16.63100586 -1.875 16.6484375 C-3.07576172 16.68106689 -3.07576172 16.68106689 -4.30078125 16.71435547 C-7.66271075 16.44217853 -9.30367296 14.93125373 -11.5625 12.53125 C-12.98291821 9.69041359 -12.87702272 7.67647722 -12.5625 4.53125 C-9.28273153 -0.24599171 -5.35087733 -0.05429209 0 0 Z " fill="#6C626B" transform="translate(379.5625,38.46875)"/>
<path d="M0 0 C0.91899582 -0.00846954 1.83799164 -0.01693909 2.78483582 -0.02566528 C5.8288652 -0.04910248 8.87239104 -0.05005575 11.91650391 -0.04882812 C14.03016361 -0.05592626 16.14382138 -0.06362474 18.25747681 -0.07189941 C22.69107415 -0.08536013 27.12449339 -0.0869061 31.55810547 -0.08105469 C37.24023058 -0.07516089 42.92150059 -0.10572996 48.60346031 -0.14617157 C52.97008876 -0.17202147 57.33651069 -0.17492835 61.70320511 -0.17127991 C63.79799166 -0.17297407 65.89278745 -0.18264498 67.98749924 -0.20042419 C70.91802897 -0.22255722 73.84682002 -0.21294014 76.77734375 -0.1953125 C77.6429744 -0.20857574 78.50860504 -0.22183899 79.40046692 -0.23550415 C83.74273789 -0.17480741 85.51388795 0.0406955 89.09170532 2.73181152 C91.01806641 5.41992188 91.01806641 5.41992188 91.08056641 9.04492188 C89.87186631 12.88432217 89.50633939 13.58689864 86.01806641 15.41992188 C82.98216952 15.87068293 79.97152436 15.85019541 76.90673828 15.83984375 C75.52561607 15.85254807 75.52561607 15.85254807 74.11659241 15.86550903 C71.07319325 15.8889075 68.0302987 15.88990061 64.98681641 15.88867188 C62.87219032 15.895771 60.75756616 15.90346962 58.64294434 15.91174316 C54.21112715 15.925194 49.77948814 15.92675367 45.34765625 15.92089844 C39.66434119 15.9149975 33.98187895 15.94560787 28.29872894 15.98601532 C23.93214297 16.01184359 19.56576378 16.01477423 15.19911194 16.01112366 C13.10349888 16.01281903 11.00787669 16.02250146 8.91233826 16.04026794 C5.98410638 16.06236445 3.05761962 16.05280359 0.12939453 16.03515625 C-0.73826035 16.04841949 -1.60591522 16.06168274 -2.49986267 16.0753479 C-6.67536517 16.0167763 -8.35491074 15.98323414 -11.55529785 13.10803223 C-13.50236584 9.43930764 -13.07824449 7.36664111 -11.98193359 3.41992188 C-8.79550129 -0.67323107 -4.81425314 -0.01622284 0 0 Z " fill="#685E68" transform="translate(255.98193359375,220.580078125)"/>
<path d="M0 0 C15.84 0 31.68 0 48 0 C48 9.9 48 19.8 48 30 C32.16 30 16.32 30 0 30 C0 20.1 0 10.2 0 0 Z " fill="#FE646E" transform="translate(70,227)"/>
<path d="M0 0 C5.57799596 3.17532977 9.46283061 8.00958558 11.49609375 14.109375 C12.53635069 21.37631274 10.76265899 27.17633957 6.49609375 33.109375 C1.96696463 37.84565764 -2.49920709 39.50982341 -9.00390625 39.859375 C-15.48521248 39.53341457 -19.89219152 37.6812477 -24.50390625 33.109375 C-26.21073552 30.81300024 -27.29253638 28.73400972 -28.50390625 26.109375 C-28.83390625 25.449375 -29.16390625 24.789375 -29.50390625 24.109375 C-30.27153761 17.59547458 -30.08857084 12.26934682 -26.09375 6.90234375 C-18.94244978 -1.16263611 -10.64742156 -3.78722639 0 0 Z " fill="#F8F5F5" transform="translate(183.50390625,55.890625)"/>
<path d="M0 0 C4.29334359 0.78857331 5.46372724 2.04490635 8.0625 5.5625 C8.79075063 9.35034969 8.71548851 13.07900805 8.65625 16.92578125 C8.65629028 18.03173141 8.65633057 19.13768158 8.65637207 20.27714539 C8.65101618 22.61475306 8.63343078 24.95236024 8.60449219 27.28979492 C8.56276979 30.85196565 8.56341488 34.41223631 8.5703125 37.97460938 C8.55981472 40.25001304 8.54687347 42.52540701 8.53125 44.80078125 C8.53104858 45.85936844 8.53084717 46.91795563 8.53063965 48.00862122 C8.42242657 54.83875022 7.92742847 61.11926811 3.37890625 66.5859375 C2.80011719 67.03195313 2.22132813 67.47796875 1.625 67.9375 C0.76068359 68.62972656 0.76068359 68.62972656 -0.12109375 69.3359375 C-5.06749452 72.6760877 -9.03332741 73.34778404 -14.9375 72.5625 C-20.12399499 70.87620549 -24.17910479 68.38969162 -26.9375 63.5625 C-27.53557728 59.89927666 -27.42134007 58.29793691 -25.375 55.1875 C-22.05780578 52.97603719 -19.84804241 53.13589537 -15.9375 53.5625 C-14.9475 54.2225 -13.9575 54.8825 -12.9375 55.5625 C-10.29117713 55.2503236 -10.29117713 55.2503236 -7.9375 54.5625 C-7.93385437 53.94497864 -7.93020874 53.32745728 -7.92645264 52.69122314 C-7.8846597 46.26707247 -7.8153367 39.84363839 -7.72998047 33.41992188 C-7.70174535 31.0222083 -7.68054354 28.62440121 -7.66650391 26.2265625 C-7.64511028 22.78076203 -7.5984762 19.33608905 -7.546875 15.890625 C-7.54503204 14.28105927 -7.54503204 14.28105927 -7.54315186 12.63897705 C-7.52343323 11.63824158 -7.5037146 10.6375061 -7.48339844 9.60644531 C-7.47451599 8.72708313 -7.46563354 7.84772095 -7.45648193 6.94171143 C-6.53341688 2.71002863 -4.1524226 0.79514475 0 0 Z " fill="#695F69" transform="translate(238.9375,38.4375)"/>
<path d="M0 0 C2.23046875 1.30859375 2.23046875 1.30859375 3.23046875 2.30859375 C3.31889705 4.75663142 3.34582847 7.17704169 3.328125 9.625 C3.32711792 10.27271362 3.32611084 10.92042725 3.32507324 11.58776855 C3.31982718 14.01556154 3.305866 16.44332936 3.29296875 18.87109375 C3.27234375 24.29546875 3.25171875 29.71984375 3.23046875 35.30859375 C-7.98953125 35.30859375 -19.20953125 35.30859375 -30.76953125 35.30859375 C-30.76953125 28.70859375 -30.76953125 22.10859375 -30.76953125 15.30859375 C-28.37703125 14.33921875 -25.98453125 13.36984375 -23.51953125 12.37109375 C-16.50580351 9.43991941 -11.0326344 5.82108971 -5.3203125 0.8359375 C-2.76953125 -0.69140625 -2.76953125 -0.69140625 0 0 Z " fill="#F9F5F6" transform="translate(426.76953125,402.69140625)"/>
<path d="M0 0 C0.33 0 0.66 0 1 0 C1 2.97 1 5.94 1 9 C11.89 9 22.78 9 34 9 C34 12.63 34 16.26 34 20 C22.78 20 11.56 20 0 20 C0 13.4 0 6.8 0 0 Z " fill="#DCD9EB" transform="translate(396,418)"/>
<path d="M0 0 C10.9030837 -0.43612335 10.9030837 -0.43612335 15 3 C16.54586876 6.09173752 16.29359521 8.59429552 16 12 C14.13291495 14.36497439 12.67938569 15.66030715 10 17 C8.29297265 17.06996014 6.58331997 17.08440154 4.875 17.0625 C3.26625 17.041875 1.6575 17.02125 0 17 C0 11.39 0 5.78 0 0 Z " fill="#F4F1F1" transform="translate(48,54)"/>
<path d="M0 0 C9.06976744 -0.48372093 9.06976744 -0.48372093 13.125 1.625 C15 4 15 4 15.5625 7 C15 10 15 10 13.6875 12.375 C9.29090442 15.03340663 5.0628521 14.2410882 0 14 C0 9.38 0 4.76 0 0 Z " fill="#F1EEEF" transform="translate(103,54)"/>
</svg>
