<?xml version="1.0" encoding="UTF-8"?>
<svg version="1.1" xmlns="http://www.w3.org/2000/svg" width="512" height="512">
<path d="M0 0 C0.73774658 0.41668945 1.47549316 0.83337891 2.2355957 1.26269531 C2.87811279 1.64119629 3.52062988 2.01969727 4.18261719 2.40966797 C7.09879263 3.23429341 8.51223498 2.32358258 11.17700195 0.97363281 C12.90890728 -0.03782552 14.61645531 -1.09175348 16.30200195 -2.17871094 C17.2559082 -2.79037109 18.20981445 -3.40203125 19.19262695 -4.03222656 C20.1774707 -4.66966797 21.16231445 -5.30710937 22.17700195 -5.96386719 C24.13500345 -7.22349773 26.09332605 -8.48262933 28.05200195 -9.74121094 C28.91567383 -10.29929443 29.7793457 -10.85737793 30.66918945 -11.43237305 C31.91055664 -12.22140015 31.91055664 -12.22140015 33.17700195 -13.02636719 C34.02907227 -13.57623291 34.88114258 -14.12609863 35.7590332 -14.69262695 C39.26327161 -16.62554844 42.35149014 -17.01973213 46.17700195 -16.02636719 C49.23667404 -14.04396622 51.67393663 -11.66233863 54.17700195 -9.02636719 C55.41450195 -7.81980469 55.41450195 -7.81980469 56.67700195 -6.58886719 C58.795924 -2.96904203 59.03070342 -0.05147367 58.17700195 3.97363281 C56.02717572 8.29075447 53.37290279 12.23078509 50.67700195 16.22363281 C49.26288652 18.3486279 47.85626123 20.47863222 46.45825195 22.61425781 C45.82983398 23.54786133 45.20141602 24.48146484 44.55395508 25.44335938 C42.8583374 28.07909483 42.8583374 28.07909483 43.17700195 31.97363281 C44.88947529 34.0447393 46.59549432 35.8955835 48.48950195 37.78613281 C62.80340267 52.68827603 73.4845775 70.30412393 82.17700195 88.97363281 C82.48524902 89.63314941 82.79349609 90.29266602 83.11108398 90.97216797 C88.72818633 103.2061028 92.23916506 115.86011283 95.17700195 128.97363281 C95.35779297 129.74884277 95.53858398 130.52405273 95.72485352 131.32275391 C106.08660061 177.6004176 95.10960325 230.16431501 70.17700195 269.97363281 C63.90452848 279.66026377 57.10662901 288.57846992 49.17700195 296.97363281 C48.08943854 298.26173984 47.00598282 299.55332815 45.92700195 300.84863281 C16.18428197 334.75260491 -29.88099695 355.38728802 -74.25805664 359.80810547 C-80.33511949 360.20028599 -86.42304946 360.21856409 -92.51049805 360.22363281 C-93.24020813 360.22430756 -93.96991821 360.2249823 -94.72174072 360.22567749 C-144.7220266 360.15254768 -190.44382649 341.07910614 -226.82299805 306.97363281 C-227.56356445 306.28406494 -227.56356445 306.28406494 -228.3190918 305.58056641 C-262.79005641 273.22642848 -283.95613576 225.66313933 -285.97094727 178.51123047 C-286.34876107 164.60730664 -286.3106502 150.69194761 -283.82299805 136.97363281 C-283.5890332 135.678125 -283.5890332 135.678125 -283.3503418 134.35644531 C-276.36716169 97.00936358 -260.07589567 63.57486657 -233.82299805 35.97363281 C-233.29609375 35.41417969 -232.76918945 34.85472656 -232.22631836 34.27832031 C-173.4961005 -27.71651943 -74.14323285 -43.55563981 0 0 Z " fill="#19479A" transform="translate(349.822998046875,120.0263671875)"/>
<path d="M0 0 C1.35501916 0.47004806 2.71050138 0.93876303 4.06640625 1.40625 C12.86333311 4.50542707 20.92506056 8.32649053 29 13 C25.04293444 17.34654051 20.80124363 20.16297158 15.75 23.125 C14.14738219 24.08548092 12.54584753 25.04777109 10.9453125 26.01171875 C10.1296582 26.5020459 9.31400391 26.99237305 8.47363281 27.49755859 C4.48646207 29.91929653 0.54974532 32.41616405 -3.375 34.9375 C-4.08172852 35.38561035 -4.78845703 35.8337207 -5.51660156 36.29541016 C-12.10554434 40.2939649 -12.10554434 40.2939649 -15.6875 46.75 C-14.04460726 54.51640205 -5.2093251 60.93882312 0.26953125 66.40234375 C1.41285164 67.54709923 1.41285164 67.54709923 2.57926941 68.71498108 C4.17556068 70.31194789 5.77309553 71.90767253 7.37182617 73.50219727 C9.82652823 75.95149736 12.27578896 78.40614904 14.72460938 80.86132812 C16.28092907 82.4169878 17.83755852 83.97233766 19.39453125 85.52734375 C20.12783157 86.2626683 20.8611319 86.99799286 21.61665344 87.75559998 C22.29463486 88.43042923 22.97261627 89.10525848 23.67114258 89.80053711 C24.26735916 90.3959581 24.86357574 90.99137909 25.4778595 91.60484314 C27.63093286 93.57829767 28.88430856 93.98457447 31.8125 94.375 C36.16227558 93.8632617 37.1335458 92.28144831 40 89 C42.27832334 85.58011215 44.30817424 82.01478988 46.33789062 78.44335938 C46.75361328 77.74404297 47.16933594 77.04472656 47.59765625 76.32421875 C47.96383057 75.68572998 48.33000488 75.04724121 48.70727539 74.3894043 C49.13387451 73.93090088 49.56047363 73.47239746 50 73 C51.32 73 52.64 73 54 73 C55.78575344 74.80117446 57.20298882 76.47047495 58.6875 78.5 C59.12102783 79.08023926 59.55455566 79.66047852 60.0012207 80.25830078 C65.00384663 87.12679065 69.10453751 94.46164405 73 102 C73.32629395 102.62664551 73.65258789 103.25329102 73.98876953 103.89892578 C89.55332637 134.20633298 92.65186686 171.1721192 84 204 C83.67 204.99 83.34 205.98 83 207 C79.37 207 75.74 207 72 207 C72 180.6 72 154.2 72 127 C66.72 127 61.44 127 56 127 C56.10748896 138.66551853 56.22011994 150.33097495 56.33933926 161.99637985 C56.39453379 167.41293051 56.44794832 172.82948659 56.49731445 178.24609375 C56.54500908 183.47214719 56.59735385 188.69813516 56.65294075 193.92411041 C56.67334117 195.91920596 56.69205807 197.91431944 56.70907402 199.90944672 C56.73316914 202.70109039 56.76321685 205.49261067 56.79467773 208.28417969 C56.8004332 209.11136505 56.80618866 209.93855042 56.81211853 210.790802 C56.80981594 215.99398703 56.80981594 215.99398703 58 221 C61.71425243 222.23808414 65.31290753 222.35580871 69.1875 222.5625 C71.765625 222.706875 74.34375 222.85125 77 223 C74.69 227.95 72.38 232.9 70 238 C66.24364431 237.24872886 64.16789693 236.75994274 61 235 C60.72929687 235.73347656 60.45859375 236.46695313 60.1796875 237.22265625 C48.77483361 264.07315662 19.60284366 283.01466997 -6.26391602 293.63769531 C-17.48821279 298.1577686 -26.35227703 299.38656361 -38.0625 295.75 C-38.90393555 295.49186523 -39.74537109 295.23373047 -40.61230469 294.96777344 C-75.1535219 283.73842749 -108.04634516 261.07627322 -130 232 C-130.50127411 231.36693436 -131.00254822 230.73386871 -131.51901245 230.08161926 C-135.83306925 224.2360033 -136.94467155 219.78490152 -136.97265625 212.59375 C-136.99025497 211.62900757 -137.0078537 210.66426514 -137.02598572 209.67028809 C-137.05182027 207.64344902 -137.06189329 205.61635299 -137.05688477 203.58935547 C-137.06249197 200.50441574 -137.15876468 197.43076532 -137.25976562 194.34765625 C-137.47598403 179.08124184 -137.47598403 179.08124184 -133.47607422 174.58984375 C-130.74181018 172.34661509 -128.16129293 170.57168681 -125 169 C-122.3079962 171.39398734 -120.8769734 173.87152058 -119.27270508 177.08227539 C-118.75239212 178.11667252 -118.23207916 179.15106964 -117.69599915 180.21681213 C-116.86614754 181.89032997 -116.86614754 181.89032997 -116.01953125 183.59765625 C-115.16025276 185.31546547 -115.16025276 185.31546547 -114.28361511 187.06797791 C-113.07371484 189.48786801 -111.86796566 191.90976681 -110.6652832 194.33325195 C-109.12190822 197.4427391 -107.5696705 200.54769769 -106.01450062 203.65129948 C-104.53282855 206.61050509 -103.05760921 209.57290694 -101.58203125 212.53515625 C-101.02272415 213.65285904 -100.46341705 214.77056183 -99.88716125 215.9221344 C-99.37630478 216.95337936 -98.8654483 217.98462433 -98.33911133 219.04711914 C-97.88627274 219.95740372 -97.43343414 220.86768829 -96.96687317 221.80555725 C-96 224 -96 224 -96 226 C-95.08476562 225.566875 -94.16953125 225.13375 -93.2265625 224.6875 C-92.03804688 224.130625 -90.84953125 223.57375 -89.625 223 C-88.44164062 222.443125 -87.25828125 221.88625 -86.0390625 221.3125 C-83 220 -83 220 -81 220 C-81.26401611 219.50226074 -81.52803223 219.00452148 -81.80004883 218.49169922 C-92.20176434 198.82962545 -102.09331951 178.91454487 -112 159 C-109.22676624 156.19347911 -106.4552143 153.44321964 -103.44921875 150.88671875 C-102.52592773 150.0987793 -102.52592773 150.0987793 -101.58398438 149.29492188 C-100.64522461 148.49924805 -100.64522461 148.49924805 -99.6875 147.6875 C-99.04232422 147.13771484 -98.39714844 146.58792969 -97.73242188 146.02148438 C-96.15656558 144.67908827 -94.57850879 143.33927606 -93 142 C-93.77974566 138.3455697 -95.02224894 136.52118297 -97.5625 133.75 C-98.20316406 133.04359375 -98.84382813 132.3371875 -99.50390625 131.609375 C-99.99761719 131.07828125 -100.49132812 130.5471875 -101 130 C-106.36271448 133.83051034 -111.35394696 137.98101954 -116.3125 142.3125 C-134.27345315 158 -134.27345315 158 -136 158 C-136 147.77 -136 137.54 -136 127 C-141.28 127 -146.56 127 -152 127 C-152 148.78 -152 170.56 -152 193 C-165.26238703 179.73761297 -166.77913257 146.71168862 -168 129 C-168 128.34 -168 127.68 -168 127 C-176.58 127 -185.16 127 -194 127 C-193 121 -193 121 -191 119 C-188.69 119.66 -186.38 120.32 -184 121 C-183.83056885 120.44530029 -183.6611377 119.89060059 -183.48657227 119.3190918 C-181.7532279 113.86029885 -179.64536232 108.85476753 -176.9375 103.8125 C-176.5453833 103.0812793 -176.1532666 102.35005859 -175.74926758 101.59667969 C-158.28083372 69.75040764 -128.81716027 46.17673662 -93.99780273 35.77368164 C-90.35369659 34.75049766 -86.6880741 33.84934711 -83 33 C-81.96359375 32.75378906 -80.9271875 32.50757813 -79.859375 32.25390625 C-59.48977179 28.30525322 -37.8989368 30.85179363 -18 36 C-17.87882813 35.33613281 -17.75765625 34.67226562 -17.6328125 33.98828125 C-17.46523438 33.10527344 -17.29765625 32.22226563 -17.125 31.3125 C-16.88136719 30.00732422 -16.88136719 30.00732422 -16.6328125 28.67578125 C-15.9936906 25.97332135 -15.05547631 23.56356792 -14 21 C-17.54153257 20.35342992 -21.0832496 19.7078757 -24.625 19.0625 C-25.62402344 18.88009766 -26.62304688 18.69769531 -27.65234375 18.50976562 C-28.62558594 18.33251953 -29.59882813 18.15527344 -30.6015625 17.97265625 C-31.49182129 17.81031494 -32.38208008 17.64797363 -33.29931641 17.48071289 C-34.19054199 17.32207764 -35.08176758 17.16344238 -36 17 C-36.96623291 16.81912842 -37.93246582 16.63825684 -38.92797852 16.4519043 C-54.88455649 14.10464007 -73.41367888 14.87453617 -89 19 C-89.77424316 19.19867676 -90.54848633 19.39735352 -91.34619141 19.60205078 C-112.44440833 25.13458262 -134.3225931 33.90293097 -150.56567383 48.87646484 C-152 50 -152 50 -154 50 C-151.74695797 36.00174508 -139.98100341 14.73240643 -128.37890625 6.03515625 C-125.30416731 4.35918898 -122.30843244 3.15282768 -119 2 C-118.28070313 1.74814941 -117.56140625 1.49629883 -116.8203125 1.23681641 C-79.23385798 -11.72645206 -37.7417167 -13.85608382 0 0 Z " fill="#3D87DD" transform="translate(312,121)"/>
<path d="M0 0 C0.73774658 0.41668945 1.47549316 0.83337891 2.2355957 1.26269531 C2.87811279 1.64119629 3.52062988 2.01969727 4.18261719 2.40966797 C7.09879263 3.23429341 8.51223498 2.32358258 11.17700195 0.97363281 C12.90890728 -0.03782552 14.61645531 -1.09175348 16.30200195 -2.17871094 C17.2559082 -2.79037109 18.20981445 -3.40203125 19.19262695 -4.03222656 C20.1774707 -4.66966797 21.16231445 -5.30710937 22.17700195 -5.96386719 C24.13500345 -7.22349773 26.09332605 -8.48262933 28.05200195 -9.74121094 C28.91567383 -10.29929443 29.7793457 -10.85737793 30.66918945 -11.43237305 C31.91055664 -12.22140015 31.91055664 -12.22140015 33.17700195 -13.02636719 C34.02907227 -13.57623291 34.88114258 -14.12609863 35.7590332 -14.69262695 C39.26327161 -16.62554844 42.35149014 -17.01973213 46.17700195 -16.02636719 C49.23667404 -14.04396622 51.67393663 -11.66233863 54.17700195 -9.02636719 C55.41450195 -7.81980469 55.41450195 -7.81980469 56.67700195 -6.58886719 C58.795924 -2.96904203 59.03070342 -0.05147367 58.17700195 3.97363281 C56.02717572 8.29075447 53.37290279 12.23078509 50.67700195 16.22363281 C49.26288652 18.3486279 47.85626123 20.47863222 46.45825195 22.61425781 C45.82983398 23.54786133 45.20141602 24.48146484 44.55395508 25.44335938 C42.8583374 28.07909483 42.8583374 28.07909483 43.17700195 31.97363281 C44.88947529 34.0447393 46.59549432 35.8955835 48.48950195 37.78613281 C62.80340267 52.68827603 73.4845775 70.30412393 82.17700195 88.97363281 C82.48524902 89.63314941 82.79349609 90.29266602 83.11108398 90.97216797 C88.72818633 103.2061028 92.23916506 115.86011283 95.17700195 128.97363281 C95.35779297 129.74884277 95.53858398 130.52405273 95.72485352 131.32275391 C106.08660061 177.6004176 95.10960325 230.16431501 70.17700195 269.97363281 C63.90452848 279.66026377 57.10662901 288.57846992 49.17700195 296.97363281 C48.08943854 298.26173984 47.00598282 299.55332815 45.92700195 300.84863281 C16.18428197 334.75260491 -29.88099695 355.38728802 -74.25805664 359.80810547 C-80.33511949 360.20028599 -86.42304946 360.21856409 -92.51049805 360.22363281 C-93.24020813 360.22430756 -93.96991821 360.2249823 -94.72174072 360.22567749 C-144.7220266 360.15254768 -190.44382649 341.07910614 -226.82299805 306.97363281 C-227.56356445 306.28406494 -227.56356445 306.28406494 -228.3190918 305.58056641 C-262.79005641 273.22642848 -283.95613576 225.66313933 -285.97094727 178.51123047 C-286.34876107 164.60730664 -286.3106502 150.69194761 -283.82299805 136.97363281 C-283.5890332 135.678125 -283.5890332 135.678125 -283.3503418 134.35644531 C-276.36716169 97.00936358 -260.07589567 63.57486657 -233.82299805 35.97363281 C-233.29609375 35.41417969 -232.76918945 34.85472656 -232.22631836 34.27832031 C-173.4961005 -27.71651943 -74.14323285 -43.55563981 0 0 Z M-165.82299805 6.97363281 C-166.44948242 7.25400391 -167.0759668 7.534375 -167.72143555 7.82324219 C-207.55176715 25.93884481 -237.69315382 58.55176222 -255.82299805 97.97363281 C-256.35666992 99.12734375 -256.8903418 100.28105469 -257.44018555 101.46972656 C-260.74795777 109.15644077 -263.01777934 116.93607916 -265.07299805 125.03613281 C-265.31937012 126.00486328 -265.56574219 126.97359375 -265.81958008 127.97167969 C-268.94893619 140.86973071 -270.23809285 153.59739883 -270.19799805 166.84863281 C-270.19712189 167.56362946 -270.19624573 168.2786261 -270.19534302 169.01528931 C-270.08674103 196.10303121 -263.66432945 221.62312919 -251.82299805 245.97363281 C-251.52844727 246.58722656 -251.23389648 247.20082031 -250.93041992 247.83300781 C-243.37707723 263.36385498 -233.35439094 277.18447108 -221.27124023 289.49462891 C-219.85866741 290.9372058 -218.46937194 292.40246037 -217.08081055 293.86816406 C-205.48423789 305.88490239 -192.24415266 314.73524946 -177.82299805 322.97363281 C-177.16992676 323.34762207 -176.51685547 323.72161133 -175.84399414 324.10693359 C-137.16353691 345.82772935 -89.53555385 349.50496887 -47.08374023 338.3112793 C-18.87830614 330.31663965 7.26122165 315.45667283 28.17700195 294.97363281 C29.19336244 294.00689096 30.21030039 293.04075587 31.2277832 292.07519531 C57.42850979 266.9128615 73.96297534 232.51786503 80.17700195 196.97363281 C80.51731445 195.07097656 80.51731445 195.07097656 80.86450195 193.12988281 C85.85362624 160.14622778 80.76282046 126.31089744 67.17700195 95.97363281 C66.89663086 95.34714844 66.61625977 94.72066406 66.32739258 94.07519531 C58.30621511 76.43922896 46.84352073 56.80059332 31.17700195 44.97363281 C26.38264814 51.70291546 21.8296029 58.54527914 17.42700195 65.53613281 C16.2086225 67.45824274 14.98986756 69.38011471 13.77075195 71.30175781 C13.17004883 72.24986328 12.5693457 73.19796875 11.95043945 74.17480469 C9.2836283 78.3835496 6.61341198 82.58986589 3.92700195 86.78613281 C3.47357422 87.50293213 3.02014648 88.21973145 2.55297852 88.95825195 C-0.59424349 93.85925553 -0.59424349 93.85925553 -2.82299805 94.97363281 C-5.44799805 95.47363281 -5.44799805 95.47363281 -8.82299805 94.97363281 C-10.60719299 93.6842804 -10.60719299 93.6842804 -12.50878906 91.95922852 C-13.21198273 91.32143463 -13.91517639 90.68364075 -14.63967896 90.02651978 C-18.23244713 86.64838464 -21.74326115 83.19595617 -25.2253418 79.70410156 C-25.98851212 78.94188797 -26.75168243 78.17967438 -27.53797913 77.3943634 C-29.13494593 75.79807214 -30.73067058 74.20053728 -32.32519531 72.60180664 C-34.7744954 70.14710458 -37.22914709 67.69784386 -39.68432617 65.24902344 C-41.23998585 63.69270374 -42.79533571 62.13607429 -44.3503418 60.57910156 C-45.45332863 59.47915108 -45.45332863 59.47915108 -46.57859802 58.35697937 C-47.25342728 57.67899796 -47.92825653 57.00101654 -48.62353516 56.30249023 C-49.51666664 55.40816536 -49.51666664 55.40816536 -50.42784119 54.49577332 C-52.4395726 52.3009392 -52.8093517 51.09917918 -53.13549805 48.09863281 C-52.74433245 44.18697682 -51.71835474 43.52183341 -48.82299805 40.97363281 C-47.31916875 39.90594233 -45.78129242 38.88503555 -44.2175293 37.90722656 C-43.32372559 37.34430908 -42.42992187 36.7813916 -41.5090332 36.20141602 C-40.5607666 35.61062256 -39.6125 35.0198291 -38.63549805 34.41113281 C-36.66010878 33.16394103 -34.68485001 31.91654255 -32.7097168 30.66894531 C-29.85313731 28.87290073 -26.99451949 27.08043329 -24.13012695 25.296875 C-21.73059021 23.80183941 -19.33888116 22.29495259 -16.94799805 20.78613281 C-15.86095581 20.11892212 -15.86095581 20.11892212 -14.75195312 19.43823242 C-13.05582274 18.36293794 -11.4301191 17.17790787 -9.82299805 15.97363281 C-9.82299805 14.98363281 -9.82299805 13.99363281 -9.82299805 12.97363281 C-29.8908456 2.85943765 -49.56103268 -3.74933141 -71.82299805 -7.02636719 C-73.09401367 -7.21972656 -74.3650293 -7.41308594 -75.67456055 -7.61230469 C-106.35701888 -11.25096654 -137.77825998 -5.58553249 -165.82299805 6.97363281 Z " fill="#000001" transform="translate(349.822998046875,120.0263671875)"/>
<path d="M0 0 C28.29361086 22.14282589 45.09768165 63.55492034 49.875 98.1875 C53.1491269 125.25178149 51.49932105 153.29595481 42 179 C41.58234375 180.2478125 41.1646875 181.495625 40.734375 182.78125 C33.04217733 205.29140723 20.37720337 226.22449123 3.69921875 243.1875 C1.0357677 245.84049919 1.0357677 245.84049919 -0.79296875 248.4375 C-7.13067869 256.62684492 -18.38810945 256.71746103 -28 258 C-28.68835938 258.1038501 -29.37671875 258.2077002 -30.0859375 258.31469727 C-35.41003529 259.07843268 -40.63725046 259.11604512 -46 259.0625 C-46.87011719 259.05798828 -47.74023438 259.05347656 -48.63671875 259.04882812 C-50.75784293 259.0371736 -52.8789311 259.01924357 -55 259 C-52.12938354 255.8800577 -49.35198142 253.93373251 -45.625 251.9375 C-24.19642664 239.64071577 -4.69736045 220.37613011 6 198 C4.824375 197.566875 4.824375 197.566875 3.625 197.125 C1 196 1 196 -1 194 C-0.34 194 0.32 194 1 194 C1.2475 193.175 1.495 192.35 1.75 191.5 C3.18704811 187.47626529 5.02354515 183.78020976 7 180 C5.96359375 179.97421875 4.9271875 179.9484375 3.859375 179.921875 C2.48954199 179.86558049 1.11975195 179.80823345 -0.25 179.75 C-0.93191406 179.73582031 -1.61382812 179.72164062 -2.31640625 179.70703125 C-5.76732892 179.53951073 -7.68421175 179.25059326 -10.421875 177.078125 C-13.50834603 173.01376216 -13.13475365 169.43779255 -13.11352539 164.51123047 C-13.11367142 163.63311707 -13.11381744 162.75500366 -13.1139679 161.85028076 C-13.11326958 158.9392248 -13.10548095 156.02823232 -13.09765625 153.1171875 C-13.09579178 151.10222407 -13.09436802 149.08726019 -13.09336853 147.07229614 C-13.08954562 141.7622147 -13.07971724 136.4521605 -13.06866455 131.14208984 C-13.05844559 125.72624073 -13.05386987 120.31038722 -13.04882812 114.89453125 C-13.03809479 104.26300885 -13.02102106 93.63150669 -13 83 C-7.72 83 -2.44 83 3 83 C3 109.4 3 135.8 3 163 C6.63 163 10.26 163 14 163 C14.18175781 161.78376953 14.18175781 161.78376953 14.3671875 160.54296875 C14.53476562 159.43566406 14.70234375 158.32835937 14.875 157.1875 C15.03742188 156.10855469 15.19984375 155.02960938 15.3671875 153.91796875 C15.71015069 151.79456085 16.06807209 149.67235992 16.50561523 147.56640625 C18.00205677 140.21085663 18.34838811 133.12145447 18.3125 125.625 C18.30758545 124.40127686 18.3026709 123.17755371 18.29760742 121.91674805 C17.91173877 91.59538716 9.45784762 62.45470107 -9 38 C-9.97839844 36.69289063 -9.97839844 36.69289063 -10.9765625 35.359375 C-13.21087045 32.43546584 -15.39657936 29.60342064 -18 27 C-6.31200234 8.76786674 -6.31200234 8.76786674 0 0 Z " fill="#2A65B7" transform="translate(381,165)"/>
<path d="M0 0 C5.28 0 10.56 0 16 0 C16.33 9.9 16.66 19.8 17 30 C19.248125 28.040625 21.49625 26.08125 23.8125 24.0625 C32.63864221 16.40026575 41.55722032 8.8994522 51 2 C52.5358444 3.56877674 54.05331331 5.15556154 55.5625 6.75 C56.40941406 7.63171875 57.25632812 8.5134375 58.12890625 9.421875 C60 12 60 12 59.8215332 13.96557617 C58.83589662 16.40638142 57.74034409 17.44681582 55.7265625 19.12890625 C55.0665625 19.68900391 54.4065625 20.24910156 53.7265625 20.82617188 C52.68628906 21.6856543 52.68628906 21.6856543 51.625 22.5625 C50.26228871 23.70876561 48.90028415 24.85587204 47.5390625 26.00390625 C46.93271973 26.50736572 46.32637695 27.0108252 45.70166016 27.52954102 C44.05393082 28.95339665 42.53118462 30.45293923 41 32 C41.5416404 33.07994987 41.5416404 33.07994987 42.09422302 34.18171692 C45.49534233 40.96392594 48.89454028 47.74709277 52.29157925 54.53134632 C54.03813306 58.01923337 55.78542978 61.50674408 57.53442383 64.9934082 C59.22198248 68.35766738 60.9075902 71.72289732 62.59184456 75.08881187 C63.23505194 76.37337768 63.87896383 77.65759098 64.52358818 78.9414463 C65.42570646 80.73843372 66.32509864 82.5367889 67.22436523 84.33520508 C67.73732651 85.35890701 68.25028778 86.38260895 68.77879333 87.43733215 C70 90 70 90 71 93 C69.06629769 94.00732399 67.12789694 95.00563288 65.1875 96 C64.10855469 96.556875 63.02960938 97.11375 61.91796875 97.6875 C59 99 59 99 56 99 C46.76 80.52 37.52 62.04 28 43 C26.02 44.32 24.04 45.64 22 47 C21.06712158 47.53939209 20.13424316 48.07878418 19.1730957 48.63452148 C15.78505236 52.3225062 16.22676484 56.00034176 16.23046875 60.84765625 C16.21262077 62.29826698 16.21262077 62.29826698 16.19441223 63.77818298 C16.17786866 65.8265865 16.17451385 67.87513272 16.18334961 69.92358398 C16.18745576 73.02904042 16.12263573 76.12786295 16.05273438 79.23242188 C15.8862646 93.18834978 15.8862646 93.18834978 22.89428711 104.92407227 C23.58917236 105.60912842 24.28405762 106.29418457 25 107 C25.99643249 108.22755656 26.98110687 109.46483087 27.94921875 110.71484375 C52.72072829 140.2492491 91.05661401 166.33922242 130 171 C114.62691273 181.24872485 84.44487314 176.89673161 67.28710938 173.49609375 C44.85664012 168.6307315 24.34592408 157.92239622 7 143 C6.04480469 142.19046875 5.08960938 141.3809375 4.10546875 140.546875 C-5.88799396 131.86931766 -14.53832061 121.58645959 -21 110 C-21 109.34 -21 108.68 -21 108 C-21.7425 108.495 -22.485 108.99 -23.25 109.5 C-26 111 -26 111 -30 111 C-31.00732399 109.06629769 -32.00563288 107.12789694 -33 105.1875 C-33.556875 104.10855469 -34.11375 103.02960938 -34.6875 101.91796875 C-36 99 -36 99 -36 96 C-35.03578125 95.93941406 -34.0715625 95.87882812 -33.078125 95.81640625 C-31.81484375 95.73261719 -30.5515625 95.64882813 -29.25 95.5625 C-27.99703125 95.48128906 -26.7440625 95.40007812 -25.453125 95.31640625 C-22.81682447 95.07484478 -20.51962706 94.75716066 -18 94 C-17.16422476 91.08375678 -16.87368991 88.49241087 -16.87060547 85.46264648 C-16.86745331 84.57169785 -16.86430115 83.68074921 -16.86105347 82.76280212 C-16.8630777 81.80853836 -16.86510193 80.8542746 -16.8671875 79.87109375 C-16.86623077 78.88504654 -16.86527405 77.89899933 -16.86428833 76.8830719 C-16.86360849 74.80103491 -16.86544909 72.71899579 -16.86962891 70.63696289 C-16.8749856 67.44607806 -16.86967432 64.25533362 -16.86328125 61.06445312 C-16.86394195 59.04166636 -16.86522296 57.01887967 -16.8671875 54.99609375 C-16.86516327 54.03980576 -16.86313904 53.08351776 -16.86105347 52.09825134 C-16.86420563 51.21045486 -16.86735779 50.32265839 -16.87060547 49.40795898 C-16.87140106 48.62726547 -16.87219666 47.84657196 -16.87301636 47.04222107 C-16.92486577 44.79749674 -16.92486577 44.79749674 -18 42 C-21.2235982 40.72075724 -24.64551732 40.80137931 -28.078125 40.68359375 C-29.23828125 40.64169922 -30.3984375 40.59980469 -31.59375 40.55664062 C-33.40359375 40.49766602 -33.40359375 40.49766602 -35.25 40.4375 C-36.47203125 40.39431641 -37.6940625 40.35113281 -38.953125 40.30664062 C-41.96861881 40.20062717 -44.98429468 40.0998156 -48 40 C-48 32.08 -48 24.16 -48 16 C-37.44 16 -26.88 16 -16 16 C-16 11.38 -16 6.76 -16 2 C-15.67 2 -15.34 2 -15 2 C-14.91363281 3.18851563 -14.82726562 4.37703125 -14.73828125 5.6015625 C-13.98643966 14.86198114 -12.8291007 23.9248868 -10.8125 33 C-10.64081299 33.80260254 -10.46912598 34.60520508 -10.29223633 35.43212891 C-7.99066308 45.28558935 -4.38384803 54.33186277 -1 64 C-0.67 42.88 -0.34 21.76 0 0 Z " fill="#3276CA" transform="translate(160,248)"/>
<path d="M0 0 C1.36674991 2.01641578 2.62765129 4.03620549 3.875 6.125 C18.08726985 29.00966091 38.70028624 44.92555418 63 56 C64.03769531 56.48210937 65.07539063 56.96421875 66.14453125 57.4609375 C97.72334256 71.41141639 134.71186972 70.13144372 166.56494141 57.97802734 C172.94583781 55.41517683 179.02711293 52.40100591 185 49 C185.59329102 48.66274902 186.18658203 48.32549805 186.79785156 47.97802734 C206.74681114 36.39883786 222.6867185 20.03116313 234 0 C237.43931834 1.3073075 240.61300905 2.81036334 243.8125 4.625 C244.60269531 5.07101562 245.39289063 5.51703125 246.20703125 5.9765625 C246.79871094 6.31429688 247.39039063 6.65203125 248 7 C247.49123338 11.69293347 245.3539505 14.85321183 242.625 18.5625 C242.18019287 19.17456299 241.73538574 19.78662598 241.27709961 20.41723633 C236.61868422 26.70573106 231.43073539 32.37777183 226 38 C225.13761719 38.92554688 224.27523437 39.85109375 223.38671875 40.8046875 C206.99793302 57.94614339 186.27984673 69.34263394 164 77 C162.28296875 77.59941406 162.28296875 77.59941406 160.53125 78.2109375 C124.3154892 89.67926175 82.40362094 85.3745646 48.77392578 68.07641602 C46.84318473 67.06193885 44.92056004 66.03359749 43 65 C41.94941406 64.44441406 40.89882812 63.88882813 39.81640625 63.31640625 C18.27623036 51.38778295 -2.33409413 31.82653355 -14 10 C-14 9.01 -14 8.02 -14 7 C-11.4453125 5.17578125 -11.4453125 5.17578125 -8.125 3.3125 C-7.03445312 2.68988281 -5.94390625 2.06726563 -4.8203125 1.42578125 C-2 0 -2 0 0 0 Z " fill="#000102" transform="translate(139,356)"/>
<path d="M0 0 C1.35501916 0.47004806 2.71050138 0.93876303 4.06640625 1.40625 C12.86333311 4.50542707 20.92506056 8.32649053 29 13 C24.8928712 17.55337619 20.32526614 20.46498621 15.0625 23.5625 C13.49022246 24.50019136 11.91859433 25.43897259 10.34765625 26.37890625 C9.60233643 26.82113525 8.8570166 27.26336426 8.08911133 27.71899414 C6.21879013 28.86584179 4.43149832 30.07821435 2.640625 31.34375 C0 33 0 33 -3.3125 32.9375 C-7.62826692 31.84027112 -11.81239422 30.50981705 -16 29 C-15.125 23.25 -15.125 23.25 -14 21 C-17.54153257 20.35342992 -21.0832496 19.7078757 -24.625 19.0625 C-25.62402344 18.88009766 -26.62304688 18.69769531 -27.65234375 18.50976562 C-28.62558594 18.33251953 -29.59882813 18.15527344 -30.6015625 17.97265625 C-31.49182129 17.81031494 -32.38208008 17.64797363 -33.29931641 17.48071289 C-34.19054199 17.32207764 -35.08176758 17.16344238 -36 17 C-36.96623291 16.81912842 -37.93246582 16.63825684 -38.92797852 16.4519043 C-54.88455649 14.10464007 -73.41367888 14.87453617 -89 19 C-89.77424316 19.19867676 -90.54848633 19.39735352 -91.34619141 19.60205078 C-112.44440833 25.13458262 -134.3225931 33.90293097 -150.56567383 48.87646484 C-152 50 -152 50 -154 50 C-151.74695797 36.00174508 -139.98100341 14.73240643 -128.37890625 6.03515625 C-125.30416731 4.35918898 -122.30843244 3.15282768 -119 2 C-118.28070313 1.74814941 -117.56140625 1.49629883 -116.8203125 1.23681641 C-79.23385798 -11.72645206 -37.7417167 -13.85608382 0 0 Z " fill="#2A64B7" transform="translate(312,121)"/>
<path d="M0 0 C1.30799561 0.00346436 2.61599121 0.00692871 3.96362305 0.01049805 C17.72742723 0.16400403 30.39922152 1.70454381 43.375 6.3125 C42.89729477 8.25036085 42.41778429 10.18777674 41.9375 12.125 C41.67066406 13.20394531 41.40382813 14.28289062 41.12890625 15.39453125 C40.61422588 17.3865843 40.02562825 19.36061524 39.375 21.3125 C35.32458232 20.84321651 31.32032083 20.33189028 27.31640625 19.55859375 C8.73193003 16.05176722 -10.22091672 15.71147918 -28.625 20.3125 C-29.83671875 20.57933594 -31.0484375 20.84617188 -32.296875 21.12109375 C-52.8750524 26.00515484 -71.79723708 36.40251817 -87.625 50.3125 C-88.46546875 51.02019531 -89.3059375 51.72789062 -90.171875 52.45703125 C-107.30428515 67.2217636 -117.48003205 85.990349 -126.625 106.3125 C-132.1179355 105.62671533 -136.52699716 104.36958887 -141.625 102.3125 C-141.04868765 96.77103506 -139.06567442 92.33587986 -136.6875 87.375 C-136.08905273 86.12299805 -136.08905273 86.12299805 -135.47851562 84.84570312 C-118.44852297 50.12358745 -87.30655755 22.18390807 -50.92480469 9.09765625 C-46.60629302 7.62331086 -42.25425191 6.28170351 -37.875 5 C-37.04822754 4.75725342 -36.22145508 4.51450684 -35.36962891 4.2644043 C-23.65850688 1.00388214 -12.12984676 -0.05251695 0 0 Z " fill="#000103" transform="translate(254.625,135.6875)"/>
<path d="M0 0 C5.28 0 10.56 0 16 0 C16.33 9.9 16.66 19.8 17 30 C19.248125 28.040625 21.49625 26.08125 23.8125 24.0625 C32.63864221 16.40026575 41.55722032 8.8994522 51 2 C52.5358444 3.56877674 54.05331331 5.15556154 55.5625 6.75 C56.40941406 7.63171875 57.25632813 8.5134375 58.12890625 9.421875 C60 12 60 12 59.8215332 13.96557617 C58.83589662 16.40638142 57.74034409 17.44681582 55.7265625 19.12890625 C55.0665625 19.68900391 54.4065625 20.24910156 53.7265625 20.82617188 C53.03304687 21.39916016 52.33953125 21.97214844 51.625 22.5625 C50.26228871 23.70876561 48.90028415 24.85587204 47.5390625 26.00390625 C46.93271973 26.50736572 46.32637695 27.0108252 45.70166016 27.52954102 C44.05393082 28.95339665 42.53118462 30.45293923 41 32 C41.5416404 33.07994987 41.5416404 33.07994987 42.09422302 34.18171692 C45.49534233 40.96392594 48.89454028 47.74709277 52.29157925 54.53134632 C54.03813306 58.01923337 55.78542978 61.50674408 57.53442383 64.9934082 C59.22198248 68.35766738 60.9075902 71.72289732 62.59184456 75.08881187 C63.23505194 76.37337768 63.87896383 77.65759098 64.52358818 78.9414463 C65.42570646 80.73843372 66.32509864 82.5367889 67.22436523 84.33520508 C67.73732651 85.35890701 68.25028778 86.38260895 68.77879333 87.43733215 C70 90 70 90 71 93 C69.06629769 94.00732399 67.12789694 95.00563288 65.1875 96 C64.10855469 96.556875 63.02960938 97.11375 61.91796875 97.6875 C59 99 59 99 56 99 C46.76 80.52 37.52 62.04 28 43 C26.02 44.32 24.04 45.64 22 47 C21.06583252 47.53141602 20.13166504 48.06283203 19.16918945 48.61035156 C15.73456727 52.39404114 16.27280651 56.2937216 16.29296875 61.234375 C16.27784744 62.22753723 16.26272614 63.22069946 16.24714661 64.24395752 C16.20419423 67.41286794 16.19542413 70.5808272 16.1875 73.75 C16.16436163 75.899765 16.13899768 78.04950729 16.11132812 80.19921875 C16.0484009 85.4662302 16.01612455 90.7326457 16 96 C10.72 96 5.44 96 0 96 C0 64.32 0 32.64 0 0 Z " fill="#000000" transform="translate(160,248)"/>
<path d="M0 0 C1.26108078 0.0001133 1.26108078 0.0001133 2.54763794 0.00022888 C3.91020218 0.00797081 3.91020218 0.00797081 5.30029297 0.01586914 C6.22969696 0.01728409 7.15910095 0.01869904 8.1166687 0.02015686 C11.09197171 0.02576486 14.06720011 0.03831871 17.04248047 0.05102539 C19.0568023 0.05603936 21.07112531 0.06060245 23.08544922 0.06469727 C28.02948849 0.07573689 32.97347182 0.0930069 37.91748047 0.11352539 C37.91748047 5.39352539 37.91748047 10.67352539 37.91748047 16.11352539 C27.35748047 16.11352539 16.79748047 16.11352539 5.91748047 16.11352539 C5.91748047 24.03352539 5.91748047 31.95352539 5.91748047 40.11352539 C8.66318359 40.0787207 8.66318359 40.0787207 11.46435547 40.04321289 C13.86539306 40.02445478 16.26643506 40.00625463 18.66748047 39.98852539 C19.87404297 39.97176758 21.08060547 39.95500977 22.32373047 39.93774414 C23.48388672 39.93129883 24.64404297 39.92485352 25.83935547 39.91821289 C26.90766602 39.90773926 27.97597656 39.89726562 29.07666016 39.88647461 C31.95791095 40.11675677 33.53651482 40.51000432 35.91748047 42.11352539 C38.00501846 45.24483237 38.16900871 45.95906495 38.17626953 49.52148438 C38.18257385 50.40928085 38.18887817 51.29707733 38.19537354 52.21177673 C38.19132507 53.16806473 38.18727661 54.12435272 38.18310547 55.10961914 C38.18597565 56.58725487 38.18597565 56.58725487 38.18890381 58.09474182 C38.19026509 60.17856095 38.18657264 62.26238857 38.17822266 64.34619141 C38.16753383 67.53510628 38.17811412 70.72345633 38.19091797 73.91235352 C38.18959614 75.9364433 38.18703326 77.96053273 38.18310547 79.98461914 C38.18715393 80.9388829 38.19120239 81.89314667 38.19537354 82.87632751 C38.18906921 83.76727615 38.18276489 84.65822479 38.17626953 85.57617188 C38.17467834 86.35766098 38.17308716 87.13915009 38.17144775 87.94432068 C37.87567527 90.4705951 37.33454119 91.998642 35.91748047 94.11352539 C33.1258414 95.97267456 30.92321911 96.36054791 27.60791016 96.34057617 C26.7673407 96.34042511 25.92677124 96.34027405 25.06072998 96.34011841 C24.16267639 96.32979584 23.2646228 96.31947327 22.33935547 96.30883789 C21.41278137 96.306008 20.48620728 96.3031781 19.53155518 96.30026245 C16.57673138 96.2890815 13.62221242 96.26398066 10.66748047 96.23852539 C8.66227652 96.2284929 6.65706781 96.21936752 4.65185547 96.21118164 C-0.25972004 96.18914897 -5.17106813 96.15463334 -10.08251953 96.11352539 C-10.08251953 90.83352539 -10.08251953 85.55352539 -10.08251953 80.11352539 C0.47748047 80.11352539 11.03748047 80.11352539 21.91748047 80.11352539 C21.91748047 72.19352539 21.91748047 64.27352539 21.91748047 56.11352539 C19.18917969 56.18313477 19.18917969 56.18313477 16.40576172 56.25415039 C14.01385106 56.29167056 11.62192264 56.32807045 9.22998047 56.36352539 C8.03179687 56.39704102 6.83361328 56.43055664 5.59912109 56.46508789 C4.4421875 56.47797852 3.28525391 56.49086914 2.09326172 56.50415039 C0.49865112 56.53557129 0.49865112 56.53557129 -1.12817383 56.56762695 C-4.80342648 56.00271745 -6.43523187 54.66846236 -9.08251953 52.11352539 C-10.22966306 49.81923834 -10.22655427 48.47906129 -10.25952148 45.92675781 C-10.27235672 45.06213425 -10.28519196 44.19751068 -10.29841614 43.3066864 C-10.30580307 42.37024796 -10.31319 41.43380951 -10.32080078 40.46899414 C-10.32887253 39.50705643 -10.33694427 38.54511871 -10.34526062 37.55403137 C-10.35910563 35.51553146 -10.36982592 33.47700833 -10.37768555 31.43847656 C-10.39489342 28.32385203 -10.4387753 25.21029022 -10.48291016 22.09594727 C-10.49303745 20.11613737 -10.50155344 18.13631844 -10.50830078 16.15649414 C-10.52580887 15.22612839 -10.54331696 14.29576263 -10.56135559 13.33720398 C-10.54706116 9.06641816 -10.4763865 6.74839504 -8.1809082 3.04833984 C-5.30334895 0.39509294 -3.80616851 -0.01139571 0 0 Z " fill="#000000" transform="translate(106.08251953125,247.886474609375)"/>
<path d="M0 0 C15.84 0 31.68 0 48 0 C48 5.28 48 10.56 48 16 C42.72 16 37.44 16 32 16 C32 37.12 32 58.24 32 80 C37.28 80 42.56 80 48 80 C48 85.28 48 90.56 48 96 C32.16 96 16.32 96 0 96 C0 90.72 0 85.44 0 80 C5.28 80 10.56 80 16 80 C16 58.88 16 37.76 16 16 C10.72 16 5.44 16 0 16 C0 10.72 0 5.44 0 0 Z " fill="#000000" transform="translate(240,248)"/>
<path d="M0 0 C5.28 0 10.56 0 16 0 C16 26.4 16 52.8 16 80 C26.56 80 37.12 80 48 80 C48 85.28 48 90.56 48 96 C41.94943005 96.09889038 35.89933065 96.17147918 29.84814453 96.21972656 C27.78979295 96.23983969 25.73149848 96.26713397 23.67333984 96.30175781 C20.71437487 96.35028883 17.75616539 96.37297166 14.796875 96.390625 C13.41698395 96.42159271 13.41698395 96.42159271 12.00921631 96.45318604 C5.61137954 96.4554321 5.61137954 96.4554321 2.45019531 94.10058594 C-0.41417678 89.95158636 -0.13463686 86.41068789 -0.11352539 81.51123047 C-0.11367142 80.63311707 -0.11381744 79.75500366 -0.1139679 78.85028076 C-0.11326958 75.9392248 -0.10548095 73.02823232 -0.09765625 70.1171875 C-0.09579178 68.10222407 -0.09436802 66.08726019 -0.09336853 64.07229614 C-0.08954562 58.7622147 -0.07971724 53.4521605 -0.06866455 48.14208984 C-0.05844559 42.72624073 -0.05386987 37.31038722 -0.04882812 31.89453125 C-0.03809479 21.26300885 -0.02102106 10.63150669 0 0 Z " fill="#000000" transform="translate(368,248)"/>
<path d="M0 0 C5.28 0 10.56 0 16 0 C16 26.4 16 52.8 16 80 C26.56 80 37.12 80 48 80 C48 85.28 48 90.56 48 96 C41.94943005 96.09889038 35.89933065 96.17147918 29.84814453 96.21972656 C27.78979295 96.23983969 25.73149848 96.26713397 23.67333984 96.30175781 C20.71437487 96.35028883 17.75616539 96.37297166 14.796875 96.390625 C13.41698395 96.42159271 13.41698395 96.42159271 12.00921631 96.45318604 C5.61137954 96.4554321 5.61137954 96.4554321 2.45019531 94.10058594 C-0.41417678 89.95158636 -0.13463686 86.41068789 -0.11352539 81.51123047 C-0.11367142 80.63311707 -0.11381744 79.75500366 -0.1139679 78.85028076 C-0.11326958 75.9392248 -0.10548095 73.02823232 -0.09765625 70.1171875 C-0.09579178 68.10222407 -0.09436802 66.08726019 -0.09336853 64.07229614 C-0.08954562 58.7622147 -0.07971724 53.4521605 -0.06866455 48.14208984 C-0.05844559 42.72624073 -0.05386987 37.31038722 -0.04882812 31.89453125 C-0.03809479 21.26300885 -0.02102106 10.63150669 0 0 Z " fill="#000000" transform="translate(304,248)"/>
<path d="M0 0 C0 3.69124601 -1.00512347 4.91595529 -3.0078125 7.98828125 C-3.6577417 8.9935083 -4.3076709 9.99873535 -4.97729492 11.03442383 C-5.6860376 12.11618896 -6.39478027 13.1979541 -7.125 14.3125 C-7.85791203 15.44182523 -8.59008119 16.57163288 -9.3215332 17.7019043 C-10.81982569 20.0164064 -12.32093146 22.32904689 -13.82373047 24.640625 C-16.98255372 29.50735704 -20.08304495 34.41098519 -23.1875 39.3125 C-29.71480393 49.5917852 -36.34102101 59.80563548 -43 70 C-48.99500997 65.03805145 -54.46427037 59.6523376 -59.9375 54.125 C-60.81212891 53.24585938 -61.68675781 52.36671875 -62.58789062 51.4609375 C-64.72757048 49.3095654 -66.86486597 47.15588208 -69 45 C-66.28553412 42.12086768 -63.60882486 39.95539139 -60.23828125 37.890625 C-58.82579102 37.01796997 -58.82579102 37.01796997 -57.38476562 36.12768555 C-56.37091797 35.50804932 -55.35707031 34.88841309 -54.3125 34.25 C-52.14115245 32.90880538 -49.97060496 31.56631478 -47.80078125 30.22265625 C-46.68010254 29.52930176 -45.55942383 28.83594727 -44.40478516 28.12158203 C-38.89962982 24.70159652 -33.45178188 21.1916798 -28 17.6875 C-18.70905073 11.72226368 -9.38395901 5.81777489 0 0 Z " fill="#F0C14F" transform="translate(386,125)"/>
<path d="M0 0 C0 3.69124601 -1.00512347 4.91595529 -3.0078125 7.98828125 C-3.6582251 8.99431396 -4.3086377 10.00034668 -4.97875977 11.03686523 C-5.68701904 12.11782471 -6.39527832 13.19878418 -7.125 14.3125 C-7.85349766 15.43451366 -8.58127321 16.55699647 -9.30834961 17.67993164 C-10.42690722 19.40712502 -11.5460372 21.1339215 -12.66777039 22.85905457 C-16.91259092 29.38875817 -21.06767519 35.97515283 -25.21728516 42.56567383 C-28.00447025 46.96517104 -30.84849635 51.32222255 -33.77734375 55.62890625 C-34.62993774 56.88489624 -34.62993774 56.88489624 -35.49975586 58.16625977 C-35.99483643 58.77139404 -36.48991699 59.37652832 -37 60 C-37.66 60 -38.32 60 -39 60 C-39.67800121 41.82580094 -37.32578043 30.46905665 -24.77734375 16.53125 C-21.27521802 13.33943921 -17.50274212 10.89140437 -13.5 8.375 C-12.75363281 7.89804688 -12.00726563 7.42109375 -11.23828125 6.9296875 C-7.52491371 4.563648 -3.7904581 2.24118356 0 0 Z " fill="#F7E35C" transform="translate(386,125)"/>
<path d="M0 0 C1.13221559 3.41259348 0.8227924 5.75147922 0.125 9.25 C-1.65798421 19.743103 -1.64407064 30.38144066 -2 41 C-10.58 41 -19.16 41 -28 41 C-27 35 -27 35 -25 33 C-22.69 33.66 -20.38 34.32 -18 35 C-17.83346924 34.44892578 -17.66693848 33.89785156 -17.49536133 33.33007812 C-15.72567671 27.72518396 -13.49184045 22.65763313 -10.6875 17.5 C-10.29377197 16.76531494 -9.90004395 16.03062988 -9.49438477 15.27368164 C-6.62169945 9.97868715 -3.54393023 4.87811573 0 0 Z " fill="#3275C9" transform="translate(146,207)"/>
<path d="M0 0 C4.95 0 9.9 0 15 0 C15 7.92 15 15.84 15 24 C11.37 24 7.74 24 4 24 C3.32860178 20.75091217 2.66270992 17.50086082 2 14.25 C1.80921875 13.32960938 1.6184375 12.40921875 1.421875 11.4609375 C1.24140625 10.57148438 1.0609375 9.68203125 0.875 8.765625 C0.70742187 7.94868164 0.53984375 7.13173828 0.3671875 6.29003906 C0 4 0 4 0 0 Z " fill="#3276CB" transform="translate(113,304)"/>
<path d="M0 0 C3.82852379 1.51761303 5.73321866 3.79343415 8.25 7 C8.95640625 7.886875 9.6628125 8.77375 10.390625 9.6875 C12 12 12 12 12 14 C10.42578125 15.62109375 10.42578125 15.62109375 8.3125 17.4375 C7.62800781 18.03433594 6.94351563 18.63117188 6.23828125 19.24609375 C4 21 4 21 -1 24 C-4.63 20.04 -8.26 16.08 -12 12 C-8.26704728 7.46712884 -4.61513452 3.62617712 0 0 Z " fill="#070707" transform="translate(96,89)"/>
<path d="M0 0 C1.00696568 2.10084209 2.0053589 4.20579489 3 6.3125 C3.556875 7.48425781 4.11375 8.65601563 4.6875 9.86328125 C6 13 6 13 6 16 C4.09118566 17.03544174 2.17260796 18.05290085 0.25 19.0625 C-0.81734375 19.63097656 -1.8846875 20.19945313 -2.984375 20.78515625 C-6 22 -6 22 -8.18359375 22.015625 C-10.92910292 20.48050159 -11.84627192 18.43440372 -13.3125 15.6875 C-14.11107422 14.23923828 -14.11107422 14.23923828 -14.92578125 12.76171875 C-16 10 -16 10 -16.03515625 7.84765625 C-14.41015721 4.94718626 -12.0823558 4.15421211 -9.125 2.75 C-8.05507812 2.22921875 -6.98515625 1.7084375 -5.8828125 1.171875 C-3 0 -3 0 0 0 Z " fill="#090909" transform="translate(154,54)"/>
<path d="M0 0 C3.62276315 1.3255581 6.63505348 2.94346955 9.8125 5.125 C10.60269531 5.66382813 11.39289062 6.20265625 12.20703125 6.7578125 C12.79871094 7.16773438 13.39039062 7.57765625 14 8 C13.35256333 11.82990706 11.54688763 14.5283898 9.4375 17.75 C8.47650391 19.22726563 8.47650391 19.22726563 7.49609375 20.734375 C7.00238281 21.48203125 6.50867187 22.2296875 6 23 C2.30123909 21.62712658 -0.9514476 19.93644547 -4.3125 17.875 C-5.19550781 17.33617187 -6.07851563 16.79734375 -6.98828125 16.2421875 C-7.65214844 15.83226562 -8.31601562 15.42234375 -9 15 C-7.68262072 11.41061876 -6.09204262 8.40505503 -3.9375 5.25 C-3.41027344 4.47140625 -2.88304687 3.6928125 -2.33984375 2.890625 C-1 1 -1 1 0 0 Z " fill="#080808" transform="translate(52,138)"/>
<path d="M0 0 C4.13813705 0.53176995 6.27082318 2.77932166 9.25 5.5625 C10.14203125 6.38878906 11.0340625 7.21507813 11.953125 8.06640625 C12.62859375 8.70449219 13.3040625 9.34257813 14 10 C12.48446596 13.47775179 10.4226544 15.9557984 7.875 18.75 C7.15054687 19.54921875 6.42609375 20.3484375 5.6796875 21.171875 C5.12539063 21.77515625 4.57109375 22.3784375 4 23 C-0.04161955 21.65515286 -2.38678154 19.9494838 -5.3125 16.875 C-6.00988281 16.15054688 -6.70726562 15.42609375 -7.42578125 14.6796875 C-7.94527344 14.12539062 -8.46476562 13.57109375 -9 13 C-7.68302856 9.20206721 -6.08343619 6.64671732 -3.375 3.6875 C-2.74335938 2.99011719 -2.11171875 2.29273437 -1.4609375 1.57421875 C-0.97882813 1.05472656 -0.49671875 0.53523438 0 0 Z " fill="#070707" transform="translate(415,91)"/>
<path d="M0 0 C4.14298667 0.59834725 7.18194377 2.00664285 10.8125 4.0625 C11.78832031 4.61035156 12.76414062 5.15820312 13.76953125 5.72265625 C14.50558594 6.14417969 15.24164063 6.56570312 16 7 C15.42176904 11.06225548 14.10882263 13.84762346 11.9375 17.3125 C11.38964844 18.19550781 10.84179688 19.07851562 10.27734375 19.98828125 C9.85582031 20.65214844 9.43429687 21.31601563 9 22 C5.14974121 21.39644592 2.13898841 20.23227397 -1.3125 18.4375 C-2.19550781 17.98246094 -3.07851563 17.52742188 -3.98828125 17.05859375 C-4.65214844 16.70925781 -5.31601562 16.35992187 -6 16 C-5.37183502 12.05050296 -4.1354471 8.80107972 -2.4375 5.1875 C-1.98246094 4.21167969 -1.52742188 3.23585937 -1.05859375 2.23046875 C-0.70925781 1.49441406 -0.35992187 0.75835937 0 0 Z " fill="#090909" transform="translate(360,55)"/>
<path d="M0 0 C3.91962318 1.33404719 6.42974109 2.97353676 9.375 5.875 C10.08398438 6.55304688 10.79296875 7.23109375 11.5234375 7.9296875 C13 10 13 10 12.98046875 11.9609375 C11.68432338 14.65650675 9.96794507 16.5584085 7.9375 18.75 C7.20402344 19.54921875 6.47054687 20.3484375 5.71484375 21.171875 C5.14894531 21.77515625 4.58304688 22.3784375 4 23 C0.0479482 22.41827275 -2.22095053 20.44842259 -5.25 17.9375 C-6.14203125 17.20402344 -7.0340625 16.47054687 -7.953125 15.71484375 C-8.62859375 15.14894531 -9.3040625 14.58304688 -10 14 C-8.62815653 9.93501119 -6.77931541 7.32603439 -3.875 4.1875 C-3.15054688 3.39730469 -2.42609375 2.60710937 -1.6796875 1.79296875 C-1.12539062 1.20128906 -0.57109375 0.60960938 0 0 Z " fill="#070707" transform="translate(72,112)"/>
<path d="M0 0 C1.640625 2.8359375 1.640625 2.8359375 3.25 6.375 C3.79140625 7.53773438 4.3328125 8.70046875 4.890625 9.8984375 C6 13 6 13 5 16 C2.3828125 17.38671875 2.3828125 17.38671875 -0.875 18.6875 C-2.47988281 19.34298828 -2.47988281 19.34298828 -4.1171875 20.01171875 C-7 21 -7 21 -10 21 C-11.03544174 19.09118566 -12.05290085 17.17260796 -13.0625 15.25 C-13.63097656 14.18265625 -14.19945312 13.1153125 -14.78515625 12.015625 C-16 9 -16 9 -16.05078125 6.81640625 C-14.39364132 3.95183351 -12.06162181 3.10651509 -9.125 1.6875 C-8.05507813 1.15511719 -6.98515625 0.62273437 -5.8828125 0.07421875 C-3 -1 -3 -1 0 0 Z " fill="#080908" transform="translate(479,169)"/>
<path d="M0 0 C5.47932789 1.54545146 10.11429181 4.15543212 15 7 C14.39644592 10.85025879 13.23227397 13.86101159 11.4375 17.3125 C10.98246094 18.19550781 10.52742188 19.07851562 10.05859375 19.98828125 C9.70925781 20.65214844 9.35992187 21.31601563 9 22 C5.05050296 21.37183502 1.80107972 20.1354471 -1.8125 18.4375 C-2.78832031 17.98246094 -3.76414062 17.52742188 -4.76953125 17.05859375 C-5.50558594 16.70925781 -6.24164062 16.35992187 -7 16 C-5.26017005 10.18738629 -3.1889511 5.16830006 0 0 Z " fill="#090909" transform="translate(35,166)"/>
<path d="M0 0 C2.04296875 2.51953125 2.04296875 2.51953125 4.1875 5.8125 C4.90292969 6.89144531 5.61835938 7.97039062 6.35546875 9.08203125 C8 12 8 12 8 15 C3.38 17.64 -1.24 20.28 -6 23 C-8.47465284 19.90668395 -10.67832574 17.11822714 -12.75 13.8125 C-13.39195312 12.80123047 -13.39195312 12.80123047 -14.046875 11.76953125 C-15 10 -15 10 -15 8 C-13.11947058 6.54805635 -11.16863151 5.18635395 -9.1875 3.875 C-8.10855469 3.15054688 -7.02960938 2.42609375 -5.91796875 1.6796875 C-3 0 -3 0 0 0 Z " fill="#080808" transform="translate(462,140)"/>
<path d="M0 0 C4.34162332 1.24585713 7.38367302 2.76845975 10.875 5.625 C11.65617187 6.25664063 12.43734375 6.88828125 13.2421875 7.5390625 C13.82226562 8.02117187 14.40234375 8.50328125 15 9 C13.65070536 12.83663072 11.92248975 15.65172569 9.375 18.8125 C8.74335938 19.60269531 8.11171875 20.39289063 7.4609375 21.20703125 C6.97882813 21.79871094 6.49671875 22.39039062 6 23 C2.37723685 21.6744419 -0.63505348 20.05653045 -3.8125 17.875 C-4.60269531 17.33617188 -5.39289063 16.79734375 -6.20703125 16.2421875 C-6.79871094 15.83226563 -7.39039063 15.42234375 -8 15 C-7.35256333 11.17009294 -5.54688763 8.4716102 -3.4375 5.25 C-2.79683594 4.26515625 -2.15617187 3.2803125 -1.49609375 2.265625 C-1.00238281 1.51796875 -0.50867188 0.7703125 0 0 Z " fill="#090909" transform="translate(389,71)"/>
<path d="M0 0 C5.36095277 1.58921525 10.70843973 3.18972938 16 5 C14.90301833 10.69139902 13.45946923 15.74567937 11 21 C5.53135543 19.98408579 0.23609987 18.92908943 -5 17 C-3.96232949 10.93267948 -2.66038099 5.5626148 0 0 Z " fill="#090909" transform="translate(22,196)"/>
<path d="M0 0 C2.296875 2.265625 2.296875 2.265625 4.75 5.25 C5.56984375 6.22453125 6.3896875 7.1990625 7.234375 8.203125 C9 11 9 11 9.10546875 13.09375 C7.4562417 15.93764683 5.23824515 17.37106322 2.5625 19.25 C1.57378906 19.95640625 0.58507812 20.6628125 -0.43359375 21.390625 C-3 23 -3 23 -5 23 C-6.9453125 20.953125 -6.9453125 20.953125 -9.125 18.25 C-9.84945313 17.36828125 -10.57390625 16.4865625 -11.3203125 15.578125 C-13 13 -13 13 -13 9 C-10.91796875 6.640625 -10.91796875 6.640625 -8.1875 4.25 C-6.84751953 3.05117187 -6.84751953 3.05117187 -5.48046875 1.828125 C-3 0 -3 0 0 0 Z " fill="#090909" transform="translate(442,114)"/>
<path d="M0 0 C1.54295801 2.14775034 2.8759056 4.21834754 4.1875 6.5 C4.55552734 7.12003906 4.92355469 7.74007812 5.30273438 8.37890625 C6.2116735 9.9134788 7.1071247 11.4560256 8 13 C4.93411513 16.24014475 2.14372319 18.74581624 -1.8125 20.8125 C-2.60269531 21.23144531 -3.39289063 21.65039062 -4.20703125 22.08203125 C-4.79871094 22.38496094 -5.39039062 22.68789062 -6 23 C-7.50894379 21.06891122 -9.00711534 19.13093994 -10.5 17.1875 C-10.92925781 16.64029297 -11.35851562 16.09308594 -11.80078125 15.52929688 C-15 11.33984375 -15 11.33984375 -15 8 C-12.48046875 5.95703125 -12.48046875 5.95703125 -9.1875 3.8125 C-8.10855469 3.09707031 -7.02960938 2.38164063 -5.91796875 1.64453125 C-3 0 -3 0 0 0 Z " fill="#090909" transform="translate(125,70)"/>
<path d="M0 0 C1.16796875 2.8359375 1.16796875 2.8359375 2.1875 6.375 C2.53167969 7.53773437 2.87585938 8.70046875 3.23046875 9.8984375 C4 13 4 13 4 16 C2.08594633 16.67413211 0.16863974 17.3390332 -1.75 18 C-2.81734375 18.37125 -3.8846875 18.7425 -4.984375 19.125 C-8 20 -8 20 -12 20 C-12.84212256 18.08717875 -13.67338864 16.16957527 -14.5 14.25 C-14.9640625 13.18265625 -15.428125 12.1153125 -15.90625 11.015625 C-17 8 -17 8 -17 4 C-14.73291675 3.1344953 -12.46224921 2.28240685 -10.1875 1.4375 C-9.54490234 1.19064453 -8.90230469 0.94378906 -8.24023438 0.68945312 C-3.33984375 -1.11328125 -3.33984375 -1.11328125 0 0 Z " fill="#080808" transform="translate(185,43)"/>
<path d="M0 0 C2.5966562 2.5966562 3.10687691 4.93815375 4.1875 8.4375 C4.55230469 9.59121094 4.91710937 10.74492187 5.29296875 11.93359375 C6 15 6 15 5 18 C2.41796875 18.94921875 2.41796875 18.94921875 -0.8125 19.6875 C-1.87082031 19.93886719 -2.92914063 20.19023437 -4.01953125 20.44921875 C-7 21 -7 21 -11 21 C-11.67413211 19.08594633 -12.3390332 17.16863974 -13 15.25 C-13.37125 14.18265625 -13.7425 13.1153125 -14.125 12.015625 C-15 9 -15 9 -15 5 C-10.05 3.35 -5.1 1.7 0 0 Z " fill="#090909" transform="translate(490,198)"/>
<path d="M0 0 C5.69139902 1.09698167 10.74567937 2.54053077 16 5 C15.39363767 10.76044212 13.24341721 15.72014369 11 21 C5.30860098 19.90301833 0.25432063 18.45946923 -5 16 C-4.54762239 14.08191891 -4.08785537 12.16557967 -3.625 10.25 C-3.24214844 8.64898437 -3.24214844 8.64898437 -2.8515625 7.015625 C-2.12466459 4.44147278 -1.2973776 2.32399814 0 0 Z " fill="#090909" transform="translate(330,43)"/>
<path d="M0 0 C2.08368538 0.31014392 4.16693668 0.6232052 6.25 0.9375 C7.41015625 1.11152344 8.5703125 1.28554688 9.765625 1.46484375 C12.23106961 1.8727736 14.59424562 2.33901303 17 3 C16.71561048 4.89693861 16.42216208 6.79252027 16.125 8.6875 C15.96257812 9.74324219 15.80015625 10.79898438 15.6328125 11.88671875 C15.04106931 14.79794914 14.1968194 17.28955607 13 20 C11.0830014 19.68954268 9.16641277 19.37655329 7.25 19.0625 C5.64898437 18.80146484 5.64898437 18.80146484 4.015625 18.53515625 C1.63652407 18.11295829 -0.66915211 17.62797116 -3 17 C-2.69188262 14.54104382 -2.37871012 12.08291693 -2.0625 9.625 C-1.97548828 8.92632812 -1.88847656 8.22765625 -1.79882812 7.5078125 C-1.11328125 2.2265625 -1.11328125 2.2265625 0 0 Z " fill="#080808" transform="translate(298,35)"/>
<path d="M0 0 C0.34144359 1.68587771 0.67271803 3.37381593 1 5.0625 C1.185625 6.00222656 1.37125 6.94195312 1.5625 7.91015625 C2 11 2 11 2 18 C-3.61 18.66 -9.22 19.32 -15 20 C-15.66 14.39 -16.32 8.78 -17 3 C-14.56625 2.505 -12.1325 2.01 -9.625 1.5 C-8.86010254 1.34337891 -8.09520508 1.18675781 -7.30712891 1.02539062 C-2.22222222 0 -2.22222222 0 0 0 Z " fill="#080808" transform="translate(500,230)"/>
<path d="M0 0 C0.33848652 1.89492006 0.67056911 3.79098466 1 5.6875 C1.185625 6.74324219 1.37125 7.79898438 1.5625 8.88671875 C1.95068074 11.64904062 2.08259976 14.21742043 2 17 C0.27192682 17.33895656 -1.45751974 17.67091525 -3.1875 18 C-4.15042969 18.185625 -5.11335937 18.37125 -6.10546875 18.5625 C-9 19 -9 19 -14 19 C-15.32 13.72 -16.64 8.44 -18 3 C-5.94642857 -0.21428571 -5.94642857 -0.21428571 0 0 Z " fill="#080808" transform="translate(217,35)"/>
<path d="M0 0 C1.05960938 0.00676758 1.05960938 0.00676758 2.140625 0.01367188 C3.88545275 0.02546125 5.630237 0.04339676 7.375 0.0625 C9.18378388 5.48885165 8.42700784 11.39364562 8.375 17.0625 C2.765 17.0625 -2.845 17.0625 -8.625 17.0625 C-8.955 11.7825 -9.285 6.5025 -9.625 1.0625 C-6.55966836 -0.47016582 -3.35745728 -0.04026471 0 0 Z " fill="#080808" transform="translate(241.625,31.9375)"/>
<path d="M0 0 C2.10464793 0.30924214 4.2087053 0.6225056 6.3125 0.9375 C7.48425781 1.11152344 8.65601563 1.28554687 9.86328125 1.46484375 C13 2 13 2 16 3 C15.85833643 4.91697937 15.71150416 6.83357723 15.5625 8.75 C15.48128906 9.81734375 15.40007813 10.8846875 15.31640625 11.984375 C15.05909227 14.43679962 14.68187782 16.63921291 14 19 C7.9981863 19.21824777 2.80766296 18.5056904 -3 17 C-2.54775239 11.08507728 -1.8417395 5.64800112 0 0 Z " fill="#080808" transform="translate(13,228)"/>
<path d="M0 0 C13.39285714 -0.13392857 13.39285714 -0.13392857 17 1 C17.02753831 2.5207267 17.04663375 4.04160674 17.0625 5.5625 C17.07410156 6.40941406 17.08570313 7.25632812 17.09765625 8.12890625 C16.98511435 11.43763796 16.46819593 14.72262852 16 18 C10.39 17.67 4.78 17.34 -1 17 C-0.67 11.39 -0.34 5.78 0 0 Z " fill="#070707" transform="translate(265,32)"/>
<path d="M0 0 C12.5 -0.125 12.5 -0.125 17 1 C17 6.28 17 11.56 17 17 C11.39 17 5.78 17 0 17 C0 11.39 0 5.78 0 0 Z " fill="#070707" transform="translate(8,261)"/>
<path d="M0 0 C0 5.61 0 11.22 0 17 C-5.61 17 -11.22 17 -17 17 C-17 11.72 -17 6.44 -17 1 C-11.16592925 0.27074116 -5.96279173 0 0 0 Z " fill="#060606" transform="translate(504,263)"/>
<path d="M0 0 C0.66 0.33 1.32 0.66 2 1 C-1.96 4.96 -5.92 8.92 -10 13 C-10.66 12.34 -11.32 11.68 -12 11 C-8.04 7.37 -4.08 3.74 0 0 Z " fill="#202020" transform="translate(96,89)"/>
<path d="M0 0 C0.99 0.33 1.98 0.66 3 1 C-0.49359465 4.59634744 -4.11098131 7.83451967 -8 11 C-6.63629701 8.00779732 -5.05091917 5.70973471 -2.875 3.25 C-2.33617188 2.63640625 -1.79734375 2.0228125 -1.2421875 1.390625 C-0.62730469 0.70226562 -0.62730469 0.70226562 0 0 Z " fill="#1D1D1D" transform="translate(72,112)"/>
<path d="M0 0 C0.99 0.33 1.98 0.66 3 1 C0.03 3.97 -2.94 6.94 -6 10 C-6 6.41087588 -5.33563446 5.89142971 -3 3.3125 C-2.443125 2.68988281 -1.88625 2.06726563 -1.3125 1.42578125 C-0.879375 0.95527344 -0.44625 0.48476562 0 0 Z " fill="#1A1A1A" transform="translate(415,91)"/>
</svg>
